<?xml version="1.0" encoding="utf-8"?>
<!-- Generator: Adobe Illustrator 27.8.0, SVG Export Plug-In . SVG Version: 6.00 Build 0)  -->
<svg version="1.1" id="Laag_1" xmlns="http://www.w3.org/2000/svg" xmlns:xlink="http://www.w3.org/1999/xlink" x="0px" y="0px"
	 viewBox="0 0 1167.2 743.7" style="enable-background:new 0 0 1167.2 743.7;" xml:space="preserve">
<style type="text/css">
	.st0{opacity:5.000000e-02;fill:#353F5C;}
</style>
<path class="st0" d="M204.9,443.9h-32.7c-2.5,0-4.7,1.2-6.1,3c-1,1.3-1.6,2.9-1.6,4.6v8.7c0,1.6,0.5,3.1,1.3,4.3
	c1.4,2,3.7,3.4,6.3,3.4h32.7c1.9,0,3.7-0.7,5.1-1.9c1.6-1.4,2.6-3.4,2.6-5.7v-8.7c0-2.1-0.8-3.9-2.1-5.3
	C209,444.8,207,443.9,204.9,443.9"/>
<path class="st0" d="M259.8,443.9H227c-2.5,0-4.7,1.2-6.1,3c-1,1.3-1.6,2.9-1.6,4.6v8.7c0,1.6,0.5,3.1,1.3,4.3
	c1.4,2,3.7,3.4,6.3,3.4h32.7c1.9,0,3.7-0.7,5-1.9c1.6-1.4,2.6-3.4,2.6-5.7v-8.7c0-2.1-0.8-3.9-2.1-5.3
	C263.9,444.8,261.9,443.9,259.8,443.9"/>
<path class="st0" d="M314.6,443.9h-32.7c-2.5,0-4.7,1.2-6.1,3c-1,1.3-1.6,2.9-1.6,4.6v8.7c0,1.6,0.5,3.1,1.3,4.3
	c1.4,2,3.7,3.4,6.3,3.4h32.7c1.9,0,3.7-0.7,5.1-1.9c1.6-1.4,2.6-3.4,2.6-5.7v-8.7c0-2.1-0.8-3.9-2.1-5.3
	C318.8,444.8,316.8,443.9,314.6,443.9"/>
<path class="st0" d="M283.8,471.4H251c-2.5,0-4.7,1.2-6.1,3c-1,1.3-1.6,2.9-1.6,4.6v8.7c0,1.6,0.5,3.1,1.3,4.3
	c1.4,2,3.7,3.4,6.3,3.4h32.7c1.9,0,3.7-0.7,5.1-1.9c1.6-1.4,2.6-3.5,2.6-5.7V479c0-2.1-0.8-3.9-2.1-5.3
	C287.9,472.3,285.9,471.4,283.8,471.4"/>
<path class="st0" d="M338.6,471.4h-32.7c-2.5,0-4.7,1.2-6.1,3c-1,1.3-1.6,2.9-1.6,4.6v8.7c0,1.6,0.5,3.1,1.3,4.3
	c1.4,2,3.7,3.4,6.3,3.4h32.7c1.9,0,3.7-0.7,5-1.9c1.6-1.4,2.6-3.5,2.6-5.7V479c0-2.1-0.8-3.9-2.1-5.3
	C342.8,472.3,340.8,471.4,338.6,471.4"/>
<path class="st0" d="M227.2,414.8h-32.7c-2.5,0-4.7,1.2-6.1,3c-1,1.3-1.6,2.9-1.6,4.6v8.7c0,1.6,0.5,3.1,1.3,4.3
	c1.4,2,3.7,3.4,6.3,3.4h32.7c1.9,0,3.7-0.7,5.1-1.9c1.6-1.4,2.6-3.5,2.6-5.7v-8.7c0-2.1-0.8-3.9-2.1-5.3
	C231.3,415.7,229.3,414.8,227.2,414.8"/>
<path class="st0" d="M360.8,110h32.7c2.5,0,4.7-1.2,6.1-3c1-1.3,1.6-2.9,1.6-4.6v-8.7c0-1.6-0.5-3.1-1.3-4.3c-1.4-2-3.7-3.4-6.3-3.4
	h-32.7c-1.9,0-3.7,0.7-5,1.9c-1.6,1.4-2.6,3.4-2.6,5.7v8.7c0,2.1,0.8,3.9,2.1,5.3C356.7,109.1,358.6,110,360.8,110"/>
<path class="st0" d="M305.9,110h32.7c2.5,0,4.7-1.2,6.1-3c1-1.3,1.6-2.9,1.6-4.6v-8.7c0-1.6-0.5-3.1-1.3-4.3c-1.4-2-3.7-3.4-6.3-3.4
	h-32.7c-1.9,0-3.7,0.7-5.1,1.9c-1.6,1.4-2.6,3.4-2.6,5.7v8.7c0,2.1,0.8,3.9,2.1,5.3C301.8,109.1,303.8,110,305.9,110"/>
<path class="st0" d="M281.9,82.5h32.7c2.5,0,4.7-1.2,6.1-3c1-1.3,1.6-2.9,1.6-4.6v-8.7c0-1.6-0.5-3.1-1.3-4.3
	c-1.4-2-3.7-3.4-6.3-3.4h-32.7c-1.9,0-3.7,0.7-5,1.9c-1.6,1.4-2.6,3.4-2.6,5.7v8.7c0,2.1,0.8,3.9,2.1,5.3
	C277.8,81.6,279.7,82.5,281.9,82.5"/>
<path class="st0" d="M257.9,49.9h32.7c2.5,0,4.7-1.2,6.1-3c1-1.3,1.6-2.9,1.6-4.6v-8.7c0-1.6-0.5-3.1-1.3-4.3
	c-1.4-2-3.7-3.4-6.3-3.4h-32.7c-1.9,0-3.7,0.7-5.1,1.9c-1.6,1.4-2.6,3.4-2.6,5.7v8.7c0,2.1,0.8,3.9,2.1,5.3
	C253.8,49.1,255.7,49.9,257.9,49.9"/>
<path class="st0" d="M227,139.1h32.7c2.5,0,4.7-1.2,6.1-3c1-1.3,1.6-2.9,1.6-4.6v-8.7c0-1.6-0.5-3.1-1.3-4.3c-1.4-2-3.7-3.4-6.3-3.4
	H227c-1.9,0-3.7,0.7-5.1,1.9c-1.6,1.4-2.6,3.5-2.6,5.7v8.7c0,2.1,0.8,3.9,2.1,5.3C222.9,138.2,224.9,139.1,227,139.1"/>
<path class="st0" d="M281.9,139.1h32.7c2.5,0,4.7-1.2,6.1-3c1-1.3,1.6-2.9,1.6-4.6v-8.7c0-1.6-0.5-3.1-1.3-4.3
	c-1.4-2-3.7-3.4-6.3-3.4h-32.7c-1.9,0-3.7,0.7-5,1.9c-1.6,1.4-2.6,3.5-2.6,5.7v8.7c0,2.1,0.8,3.9,2.1,5.3
	C277.8,138.2,279.7,139.1,281.9,139.1"/>
<path class="st0" d="M338.5,139.1h32.7c2.5,0,4.7-1.2,6.1-3c1-1.3,1.6-2.9,1.6-4.6v-8.7c0-1.6-0.5-3.1-1.3-4.3
	c-1.4-2-3.7-3.4-6.3-3.4h-32.7c-1.9,0-3.7,0.7-5.1,1.9c-1.6,1.4-2.6,3.5-2.6,5.7v8.7c0,2.1,0.8,3.9,2.1,5.3
	C334.4,138.2,336.3,139.1,338.5,139.1"/>
<path class="st0" d="M65.4,683.4H32.6c-2.5,0-4.7,1.2-6.1,3c-1,1.3-1.6,2.9-1.6,4.6v8.7c0,1.6,0.5,3.1,1.3,4.3
	c1.4,2,3.7,3.4,6.3,3.4h32.7c1.9,0,3.7-0.7,5.1-1.9c1.6-1.4,2.6-3.4,2.6-5.7V691c0-2.1-0.8-3.9-2.1-5.3
	C69.5,684.3,67.5,683.4,65.4,683.4"/>
<path class="st0" d="M120.3,683.4H87.5c-2.5,0-4.7,1.2-6.1,3c-1,1.3-1.6,2.9-1.6,4.6v8.7c0,1.6,0.5,3.1,1.3,4.3
	c1.4,2,3.7,3.4,6.3,3.4h32.7c1.9,0,3.7-0.7,5-1.9c1.6-1.4,2.6-3.4,2.6-5.7V691c0-2.1-0.8-3.9-2.1-5.3
	C124.4,684.3,122.4,683.4,120.3,683.4"/>
<path class="st0" d="M144.3,710.8h-32.7c-2.5,0-4.7,1.2-6.1,3c-1,1.3-1.6,2.9-1.6,4.6v8.7c0,1.6,0.5,3.1,1.3,4.3
	c1.4,2,3.7,3.4,6.3,3.4h32.7c1.9,0,3.7-0.7,5.1-1.9c1.6-1.4,2.6-3.5,2.6-5.7v-8.7c0-2.1-0.8-3.9-2.1-5.3
	C148.4,711.7,146.4,710.8,144.3,710.8"/>
<path class="st0" d="M87.7,654.2H54.9c-2.5,0-4.7,1.2-6.1,3c-1,1.3-1.6,2.9-1.6,4.6v8.7c0,1.6,0.5,3.1,1.3,4.3
	c1.4,2,3.7,3.4,6.3,3.4h32.7c1.9,0,3.7-0.7,5.1-1.9c1.6-1.4,2.6-3.5,2.6-5.7v-8.7c0-2.1-0.8-3.9-2.1-5.3
	C91.8,655.1,89.8,654.2,87.7,654.2"/>
<path class="st0" d="M573.6,607.9h-32.7c-2.5,0-4.7,1.2-6.1,3c-1,1.3-1.6,2.9-1.6,4.6v8.7c0,1.6,0.5,3.1,1.3,4.3
	c1.4,2,3.7,3.4,6.3,3.4h32.7c1.9,0,3.7-0.7,5.1-1.9c1.6-1.4,2.6-3.4,2.6-5.7v-8.7c0-2.1-0.8-3.9-2.1-5.3
	C577.7,608.8,575.8,607.9,573.6,607.9"/>
<path class="st0" d="M628.5,607.9h-32.7c-2.5,0-4.7,1.2-6.1,3c-1,1.3-1.6,2.9-1.6,4.6v8.7c0,1.6,0.5,3.1,1.3,4.3
	c1.4,2,3.7,3.4,6.3,3.4h32.7c1.9,0,3.7-0.7,5-1.9c1.6-1.4,2.6-3.4,2.6-5.7v-8.7c0-2.1-0.8-3.9-2.1-5.3
	C632.6,608.8,630.6,607.9,628.5,607.9"/>
<path class="st0" d="M683.3,607.9h-32.7c-2.5,0-4.7,1.2-6.1,3c-1,1.3-1.6,2.9-1.6,4.6v8.7c0,1.6,0.5,3.1,1.3,4.3
	c1.4,2,3.7,3.4,6.3,3.4h32.7c1.9,0,3.7-0.7,5.1-1.9c1.6-1.4,2.6-3.4,2.6-5.7v-8.7c0-2.1-0.8-3.9-2.1-5.3
	C687.5,608.8,685.5,607.9,683.3,607.9"/>
<path class="st0" d="M652.5,635.3h-32.7c-2.5,0-4.7,1.2-6.1,3c-1,1.3-1.6,2.9-1.6,4.6v8.7c0,1.6,0.5,3.1,1.3,4.3
	c1.4,2,3.7,3.4,6.3,3.4h32.7c1.9,0,3.7-0.7,5.1-1.9c1.6-1.4,2.6-3.5,2.6-5.7V643c0-2.1-0.8-3.9-2.1-5.3
	C656.6,636.2,654.6,635.3,652.5,635.3"/>
<path class="st0" d="M707.4,635.3h-32.7c-2.5,0-4.7,1.2-6.1,3c-1,1.3-1.6,2.9-1.6,4.6v8.7c0,1.6,0.5,3.1,1.3,4.3
	c1.4,2,3.7,3.4,6.3,3.4h32.7c1.9,0,3.7-0.7,5-1.9c1.6-1.4,2.6-3.5,2.6-5.7V643c0-2.1-0.8-3.9-2.1-5.3
	C711.5,636.2,709.5,635.3,707.4,635.3"/>
<path class="st0" d="M595.9,578.8h-32.7c-2.5,0-4.7,1.2-6.1,3c-1,1.3-1.6,2.9-1.6,4.6v8.7c0,1.6,0.5,3.1,1.3,4.3
	c1.4,2,3.7,3.4,6.3,3.4h32.7c1.9,0,3.7-0.7,5.1-1.9c1.6-1.4,2.6-3.5,2.6-5.7v-8.7c0-2.1-0.8-3.9-2.1-5.3
	C600,579.6,598,578.8,595.9,578.8"/>
<path class="st0" d="M603,311.1h-32.7c-2.5,0-4.7,1.2-6.1,3c-1,1.3-1.6,2.9-1.6,4.6v8.7c0,1.6,0.5,3.1,1.3,4.3
	c1.4,2,3.7,3.4,6.3,3.4H603c1.9,0,3.7-0.7,5.1-1.9c1.6-1.4,2.6-3.4,2.6-5.7v-8.7c0-2.1-0.8-3.9-2.1-5.3
	C607.1,312,605.2,311.1,603,311.1"/>
<path class="st0" d="M657.9,311.1h-32.7c-2.5,0-4.7,1.2-6.1,3c-1,1.3-1.6,2.9-1.6,4.6v8.7c0,1.6,0.5,3.1,1.3,4.3
	c1.4,2,3.7,3.4,6.3,3.4h32.7c1.9,0,3.7-0.7,5-1.9c1.6-1.4,2.6-3.4,2.6-5.7v-8.7c0-2.1-0.8-3.9-2.1-5.3
	C662,312,660,311.1,657.9,311.1"/>
<path class="st0" d="M712.7,311.1H680c-2.5,0-4.7,1.2-6.1,3c-1,1.3-1.6,2.9-1.6,4.6v8.7c0,1.6,0.5,3.1,1.3,4.3
	c1.4,2,3.7,3.4,6.3,3.4h32.7c1.9,0,3.7-0.7,5.1-1.9c1.6-1.4,2.6-3.4,2.6-5.7v-8.7c0-2.1-0.8-3.9-2.1-5.3
	C716.9,312,714.9,311.1,712.7,311.1"/>
<path class="st0" d="M736.8,338.5H704c-2.5,0-4.7,1.2-6.1,3c-1,1.3-1.6,2.9-1.6,4.6v8.7c0,1.6,0.5,3.1,1.3,4.3
	c1.4,2,3.7,3.4,6.3,3.4h32.7c1.9,0,3.7-0.7,5-1.9c1.6-1.4,2.6-3.5,2.6-5.7v-8.7c0-2.1-0.8-3.9-2.1-5.3
	C740.9,339.4,738.9,338.5,736.8,338.5"/>
<path class="st0" d="M625.3,281.9h-32.7c-2.5,0-4.7,1.2-6.1,3c-1,1.3-1.6,2.9-1.6,4.6v8.7c0,1.6,0.5,3.1,1.3,4.3
	c1.4,2,3.7,3.4,6.3,3.4h32.7c1.9,0,3.7-0.7,5.1-1.9c1.6-1.4,2.6-3.5,2.6-5.7v-8.7c0-2.1-0.8-3.9-2.1-5.3
	C629.4,282.8,627.4,281.9,625.3,281.9"/>
<path class="st0" d="M681.9,281.9h-32.7c-2.5,0-4.7,1.2-6.1,3c-1,1.3-1.6,2.9-1.6,4.6v8.7c0,1.6,0.5,3.1,1.3,4.3
	c1.4,2,3.7,3.4,6.3,3.4h32.7c1.9,0,3.7-0.7,5-1.9c1.6-1.4,2.6-3.4,2.6-5.7v-8.7c0-2.1-0.8-3.9-2.1-5.3
	C686,282.8,684,281.9,681.9,281.9"/>
<path class="st0" d="M736.8,281.9H704c-2.5,0-4.7,1.2-6.1,3c-1,1.3-1.6,2.9-1.6,4.6v8.7c0,1.6,0.5,3.1,1.3,4.3
	c1.4,2,3.7,3.4,6.3,3.4h32.7c1.9,0,3.7-0.7,5-1.9c1.6-1.4,2.6-3.4,2.6-5.7v-8.7c0-2.1-0.8-3.9-2.1-5.3
	C740.9,282.8,738.9,281.9,736.8,281.9"/>
<path class="st0" d="M969.7,70.5H937c-2.5,0-4.7,1.2-6.1,3c-1,1.3-1.6,2.9-1.6,4.6v8.7c0,1.6,0.5,3.1,1.3,4.3c1.4,2,3.7,3.4,6.3,3.4
	h32.7c1.9,0,3.7-0.7,5.1-1.9c1.6-1.4,2.6-3.4,2.6-5.7v-8.7c0-2.1-0.8-3.9-2.1-5.3C973.9,71.4,971.9,70.5,969.7,70.5"/>
<path class="st0" d="M1024.6,70.5h-32.7c-2.5,0-4.7,1.2-6.1,3c-1,1.3-1.6,2.9-1.6,4.6v8.7c0,1.6,0.5,3.1,1.3,4.3
	c1.4,2,3.7,3.4,6.3,3.4h32.7c1.9,0,3.7-0.7,5-1.9c1.6-1.4,2.6-3.4,2.6-5.7v-8.7c0-2.1-0.8-3.9-2.1-5.3
	C1028.7,71.4,1026.8,70.5,1024.6,70.5"/>
<path class="st0" d="M1079.5,70.5h-32.7c-2.5,0-4.7,1.2-6.1,3c-1,1.3-1.6,2.9-1.6,4.6v8.7c0,1.6,0.5,3.1,1.3,4.3
	c1.4,2,3.7,3.4,6.3,3.4h32.7c1.9,0,3.7-0.7,5.1-1.9c1.6-1.4,2.6-3.4,2.6-5.7v-8.7c0-2.1-0.8-3.9-2.1-5.3
	C1083.6,71.4,1081.7,70.5,1079.5,70.5"/>
<path class="st0" d="M1103.5,98h-32.7c-2.5,0-4.7,1.2-6.1,3c-1,1.3-1.6,2.9-1.6,4.6v8.7c0,1.6,0.5,3.1,1.3,4.3
	c1.4,2,3.7,3.4,6.3,3.4h32.7c1.9,0,3.7-0.7,5-1.9c1.6-1.4,2.6-3.5,2.6-5.7v-8.7c0-2.1-0.8-3.9-2.1-5.3
	C1107.6,98.9,1105.7,98,1103.5,98"/>
<path class="st0" d="M992,41.4h-32.7c-2.5,0-4.7,1.2-6.1,3c-1,1.3-1.6,2.9-1.6,4.6v8.7c0,1.6,0.5,3.1,1.3,4.3c1.4,2,3.7,3.4,6.3,3.4
	H992c1.9,0,3.7-0.7,5.1-1.9c1.6-1.4,2.6-3.5,2.6-5.7V49c0-2.1-0.8-3.9-2.1-5.3C996.1,42.3,994.2,41.4,992,41.4"/>
<path class="st0" d="M1048.6,41.4h-32.7c-2.5,0-4.7,1.2-6.1,3c-1,1.3-1.6,2.9-1.6,4.6v8.7c0,1.6,0.5,3.1,1.3,4.3
	c1.4,2,3.7,3.4,6.3,3.4h32.7c1.9,0,3.7-0.7,5-1.9c1.6-1.4,2.6-3.4,2.6-5.7V49c0-2.1-0.8-3.9-2.1-5.3
	C1052.7,42.3,1050.8,41.4,1048.6,41.4"/>
<path class="st0" d="M1103.5,41.4h-32.7c-2.5,0-4.7,1.2-6.1,3c-1,1.3-1.6,2.9-1.6,4.6v8.7c0,1.6,0.5,3.1,1.3,4.3
	c1.4,2,3.7,3.4,6.3,3.4h32.7c1.9,0,3.7-0.7,5-1.9c1.6-1.4,2.6-3.4,2.6-5.7V49c0-2.1-0.8-3.9-2.1-5.3
	C1107.6,42.3,1105.7,41.4,1103.5,41.4"/>
<path class="st0" d="M933.7,472.2H901c-2.5,0-4.7,1.2-6.1,3c-1,1.3-1.6,2.9-1.6,4.6v8.7c0,1.6,0.5,3.1,1.3,4.3
	c1.4,2,3.7,3.4,6.3,3.4h32.7c1.9,0,3.7-0.7,5.1-1.9c1.6-1.4,2.6-3.4,2.6-5.7v-8.7c0-2.1-0.8-3.9-2.1-5.3
	C937.8,473.1,935.9,472.2,933.7,472.2"/>
<path class="st0" d="M988.6,472.2h-32.7c-2.5,0-4.7,1.2-6.1,3c-1,1.3-1.6,2.9-1.6,4.6v8.7c0,1.6,0.5,3.1,1.3,4.3
	c1.4,2,3.7,3.4,6.3,3.4h32.7c1.9,0,3.7-0.7,5-1.9c1.6-1.4,2.6-3.4,2.6-5.7v-8.7c0-2.1-0.8-3.9-2.1-5.3
	C992.7,473.1,990.8,472.2,988.6,472.2"/>
<path class="st0" d="M1012.6,499.7h-32.7c-2.5,0-4.7,1.2-6.1,3c-1,1.3-1.6,2.9-1.6,4.6v8.7c0,1.6,0.5,3.1,1.3,4.3
	c1.4,2,3.7,3.4,6.3,3.4h32.7c1.9,0,3.7-0.7,5.1-1.9c1.6-1.4,2.6-3.5,2.6-5.7v-8.7c0-2.1-0.8-3.9-2.1-5.3
	C1016.7,500.6,1014.8,499.7,1012.6,499.7"/>
<path class="st0" d="M956,443.1h-32.7c-2.5,0-4.7,1.2-6.1,3c-1,1.3-1.6,2.9-1.6,4.6v8.7c0,1.6,0.5,3.1,1.3,4.3
	c1.4,2,3.7,3.4,6.3,3.4H956c1.9,0,3.7-0.7,5.1-1.9c1.6-1.4,2.6-3.5,2.6-5.7v-8.7c0-2.1-0.8-3.9-2.1-5.3
	C960.1,444,958.2,443.1,956,443.1"/>
</svg>
