<?xml version="1.0" encoding="utf-8"?>
<!-- Generator: Adobe Illustrator 27.8.0, SVG Export Plug-In . SVG Version: 6.00 Build 0)  -->
<svg version="1.1" id="a" xmlns="http://www.w3.org/2000/svg" xmlns:xlink="http://www.w3.org/1999/xlink" x="0px" y="0px"
	 viewBox="0 0 552.1 581.4" style="enable-background:new 0 0 552.1 581.4;" xml:space="preserve">
<style type="text/css">
	.st0{fill:#5979DA;enable-background:new    ;}
</style>
<path class="st0" d="M106.5,228.4c-1.3,0-2.6-0.2-3.8-0.8c-5-2.1-7.4-7.9-5.3-12.9c3.5-8.3,6.2-16.7,9-25.6
	c3.9-12.3,8-25.1,14.4-37.9c0.1-0.2,0.2-0.4,0.3-0.6c9.5-16.2,19.9-29.3,32.5-44.8c0.1-0.1,0.2-0.2,0.3-0.3
	c11.7-13.1,24.6-22.3,38.1-32.2l3-2.2c0.2-0.2,0.4-0.3,0.6-0.4c17-10.5,33.6-17.7,53.8-23.5c0.1,0,0.1,0,0.1,0
	c34.8-9.4,71-9.8,107.6-1.4c0.1,0,0.2,0,0.3,0.1c41.7,11.1,77.9,33.7,104.5,65.3c3.5,4.2,3,10.4-1.2,13.9c-4.2,3.5-10.4,3-13.9-1.2
	c-24-28.4-56.6-48.8-94.4-58.9c-33.3-7.7-66.2-7.2-97.7,1.2c-18.5,5.3-33.1,11.6-48.5,21.1l-2.7,1.9c-13.2,9.6-24.6,17.8-34.9,29.2
	c-11.9,14.6-21.8,27-30.4,41.7c-5.7,11.4-9.3,22.8-13.1,34.8c-2.8,8.9-5.8,18-9.6,27.2C114,226.1,110.4,228.4,106.5,228.4"/>
<path class="st0" d="M9.9,307.6c-2.3,0-4.6-0.8-6.4-2.4c-4.1-3.6-4.6-9.8-1-13.9c9.4-11,18.3-22.4,26.2-34c13-18.9,23.6-38,31.8-57
	c3.1-7.2,5.4-14.6,7.9-22.4c2.1-6.7,4.3-13.6,7-20.4c2-5.1,7.8-7.6,12.8-5.5c5.1,2,7.6,7.8,5.6,12.8c-2.5,6.2-4.5,12.5-6.6,19.1
	c-2.5,7.9-5.2,16.1-8.6,24.2c-8.6,20.1-19.9,40.4-33.6,60.4c-8.4,12.2-17.6,24.2-27.5,35.7C15.4,306.4,12.7,307.6,9.9,307.6"/>
<path class="st0" d="M107,127.8c-1.8,0-3.6-0.5-5.3-1.5c-4.6-2.9-6-9-3-13.6c25-39.2,62.5-71.7,105.8-91.3
	C249.2,1.1,297.1-4.9,342.9,4c5.4,1,8.9,6.2,7.8,11.6s-6.2,8.9-11.6,7.8c-84-16.3-176.1,24.8-223.8,99.9
	C113.5,126.2,110.3,127.8,107,127.8"/>
<path class="st0" d="M520.2,363.9c-1.1,0-2.3-0.2-3.4-0.6c-5.1-1.9-7.8-7.6-5.9-12.7c22.8-62.2,27.4-115.8,13.9-163.7
	c-13-46.5-41.6-88.7-80.4-118.9c-20.9-16.2-44.6-28.5-72.3-37.3c-5.2-1.7-8.1-7.2-6.4-12.4s7.2-8.1,12.4-6.4
	c29.6,9.4,56,23.1,78.4,40.5c42.1,32.7,73.1,78.6,87.3,129.1c14.6,52.1,9.9,109.6-14.4,175.9C528,361.4,524.2,363.9,520.2,363.9"/>
<path class="st0" d="M415,559.1c-2,0-4-0.6-5.7-1.8c-4.5-3.2-5.5-9.3-2.3-13.8c28.8-40.5,61.4-89.5,85.2-145.9c2.1-5,7.9-7.4,13-5.3
	c5,2.1,7.4,7.9,5.3,13c-24.5,58.1-57.9,108.3-87.3,149.7C421.2,557.6,418.1,559.1,415,559.1"/>
<path class="st0" d="M17.6,357.4c-2.5,0-4.9-0.9-6.9-2.8c-3.9-3.8-4-10-0.2-14c27.5-28.5,49.6-57,65.8-84.7
	c2.7-4.7,8.8-6.3,13.5-3.6c4.7,2.8,6.3,8.8,3.6,13.5c-17.2,29.5-39.6,58.5-68.6,88.5C22.8,356.4,20.2,357.4,17.6,357.4"/>
<path class="st0" d="M436.1,452.6c-1.6,0-3.1-0.4-4.6-1.1c-4.8-2.6-6.7-8.5-4.1-13.4c46.5-87.8,92.2-188.9,44.2-277
	c-2.6-4.8-0.8-10.8,4-13.4s10.8-0.8,13.4,3.9c24.2,44.5,29.2,94.7,15.1,153.4c-11.8,49.2-35.4,97.4-59.2,142.3
	C443,450.7,439.6,452.6,436.1,452.6"/>
<path class="st0" d="M350.9,577.4c-2.2,0-4.4-0.7-6.3-2.2c-4.2-3.5-4.8-9.7-1.3-13.9c20.8-25.2,40-51.5,57.3-78.4
	c3-4.6,9.1-5.9,13.7-3c4.6,3,5.9,9.1,3,13.7c-17.7,27.5-37.4,54.5-58.7,80.2C356.6,576.2,353.7,577.4,350.9,577.4"/>
<path class="st0" d="M31.3,399.3c-2.6,0-5.3-1-7.2-3.1c-3.7-4-3.5-10.2,0.5-14c16.4-15.3,31.7-31.7,45.6-48.7
	c22-26.9,40.3-55.1,54.6-84.1c6.1-12.4,11-23.9,15-35c1.3-3.7,2.5-7.5,3.7-11.5c1.5-5.1,3.1-10.3,5.1-15.5c2-5.1,7.7-7.6,12.8-5.6
	c5.1,2,7.6,7.7,5.6,12.8c-1.7,4.5-3.1,9.1-4.6,14c-1.2,4.1-2.5,8.3-4,12.5c-4.2,11.9-9.4,24-15.9,37.1c-14.9,30.3-34.1,59.8-57,87.8
	C70.9,363.7,55,380.7,38,396.6C36.1,398.4,33.7,399.3,31.3,399.3"/>
<path class="st0" d="M449,191.5c-3.9,0-7.5-2.3-9.1-6.1c-16.7-40.2-53.8-70.1-101.9-82.2c-56-13.4-114.6,7.3-149.1,52.8
	c-3.3,4.4-9.5,5.2-13.8,1.9c-4.4-3.3-5.2-9.5-1.9-13.9C212.4,92.4,279,68.8,342.7,84.1c54.3,13.6,96.3,47.7,115.4,93.8
	c2.1,5-0.3,10.8-5.3,12.9C451.6,191.3,450.3,191.5,449,191.5"/>
<path class="st0" d="M295.2,581.4c-2.4,0-4.8-0.9-6.7-2.6c-4-3.7-4.3-10-0.6-14c1.3-1.4,2.6-2.9,3.9-4.4c4.1-4.7,8.4-9.5,13.6-13.8
	c1.4-2,2.7-4.1,4.1-6.3c1.7-2.8,3.5-5.6,5.8-8.6c0.2-0.3,0.4-0.5,0.6-0.8c38.8-42.3,64.6-89.7,91.9-139.9c2.3-4.2,4.6-8.5,6.9-12.7
	V377c0-1.3,0.3-2.6,0.8-3.8c2-4.9,4.1-9.7,6.2-14.6c19.1-44.6,38.9-90.7,29.3-137.6c-1.1-5.4,2.3-10.6,7.7-11.7
	c5.4-1.1,10.6,2.3,11.7,7.7c10.9,53-10.1,102-30.5,149.4c-1.8,4.2-3.6,8.5-5.4,12.6v2c0,1.7-0.4,3.3-1.2,4.8
	c-2.7,5-5.4,9.9-8.1,14.9c-27.9,51.2-54.2,99.5-94.4,143.5c-1.6,2.2-3,4.5-4.5,6.8c-1.7,2.8-3.5,5.6-5.7,8.6
	c-0.5,0.7-1.1,1.3-1.7,1.8c-4.4,3.5-8.2,7.8-12.3,12.3c-1.4,1.5-2.8,3.1-4.2,4.6C300.6,580.3,297.9,581.4,295.2,581.4"/>
<path class="st0" d="M49.5,436.3c-2.7,0-5.4-1.1-7.3-3.3c-3.7-4.1-3.3-10.3,0.8-14c10.7-9.6,21-19.7,30.9-30
	c35-36.8,63.9-77.2,85.9-120.3c2.5-4.9,8.4-6.8,13.3-4.3c4.9,2.5,6.8,8.4,4.3,13.3c-22.8,44.8-52.8,86.8-89.2,125
	c-10.2,10.7-20.9,21.1-32,31C54.2,435.4,51.8,436.3,49.5,436.3"/>
<path class="st0" d="M422.8,272.7c-0.4,0-0.8,0-1.2-0.1c-5.4-0.7-9.2-5.6-8.6-11c4.2-32.9-6.6-65.6-29.6-89.9
	c-31.2-31.2-75.9-41.7-114.1-26.9c-2.6,1.3-5.5,2.7-9.6,4.1c-13.1,6-23.1,14.8-33.6,24.2c-9.5,10.7-16.9,22.9-23.9,39.6
	c-2.6,10.6-5.4,21.5-10.4,32.2c-2.3,5-8.2,7.1-13.1,4.8c-4.9-2.3-7.1-8.2-4.8-13.1c4.3-9.2,6.7-19,9.3-29.4c0.1-0.5,0.3-0.9,0.5-1.4
	c8.1-19.4,16.7-33.6,28.1-46.3c0.2-0.3,0.5-0.5,0.8-0.8c11.4-10.1,23.2-20.6,39.4-28c0.3-0.1,0.6-0.3,1-0.4c3.3-1.1,5.4-2.2,7.9-3.4
	c0.3-0.1,0.5-0.2,0.8-0.4c45.6-17.9,98.9-5.7,135.8,31.2c0.1,0.1,0.1,0.1,0.2,0.2c27.1,28.6,39.9,67.2,35,106.1
	C432,269.1,427.7,272.7,422.8,272.7"/>
<path class="st0" d="M246.2,575.9c-2.5,0-5-0.9-6.9-2.8c-3.9-3.8-3.9-10.1-0.1-14c72.6-73.9,125.8-155.7,158.1-243.1
	c1.9-5.1,7.6-7.7,12.7-5.8c5.1,1.9,7.7,7.6,5.8,12.7c-33.3,90-88,174.2-162.5,250.1C251.3,574.9,248.7,575.9,246.2,575.9"/>
<path class="st0" d="M71.9,469.2c-2.7,0-5.4-1.1-7.4-3.3c-3.6-4.1-3.2-10.3,0.8-14c27.7-24.6,52-50.4,74.3-78.8
	c3.4-4.3,9.6-5,13.9-1.7c4.3,3.4,5.1,9.6,1.7,13.9c-23,29.3-48.1,56-76.7,81.4C76.6,468.4,74.2,469.2,71.9,469.2"/>
<path class="st0" d="M170.1,357.8c-1.8,0-3.5-0.5-5.1-1.5c-4.6-2.9-6.1-8.9-3.3-13.6l2.2-3.6c19.3-31.5,37.5-61.2,48.6-94.3
	c6.8-21.8,13.9-44.4,31.4-61.9c0.1-0.1,0.1-0.1,0.2-0.2c26.2-24.8,66.1-31.3,99.2-16.3c0.1,0.1,0.2,0.1,0.3,0.2
	c24.1,12.1,41.4,33,48.6,58.9c0,0.1,0.1,0.3,0.1,0.4c4.1,17.7,2.2,36.9-5.5,55.7c-2.1,5-7.9,7.5-12.9,5.4c-5-2.1-7.5-7.8-5.4-12.9
	c6.2-15.1,7.7-29.7,4.6-43.5c-5.7-20.3-19.2-36.7-38.1-46.2c-25.8-11.6-56.7-6.6-77.1,12.7c-14,14.1-20.1,33.4-26.4,53.8
	c0,0.1,0,0.1-0.1,0.2c-11.8,35.3-30.6,66-50.5,98.5l-2.2,3.6C176.6,356.1,173.4,357.8,170.1,357.8"/>
<path class="st0" d="M202.5,563.7c-2.6,0-5.1-1-7.1-3c-3.8-3.9-3.7-10.2,0.2-14c26.6-26,50.6-52.6,71.5-79.1
	c22.8-29,42.6-59,58.8-88.9c9.7-18,18.4-36.5,25.7-54.8c2-5.1,7.8-7.5,12.8-5.5c5.1,2,7.5,7.8,5.5,12.8c-7.6,19-16.6,38.2-26.6,56.9
	c-16.7,31-37.1,61.8-60.6,91.8c-21.4,27.2-46,54.5-73.2,81.1C207.4,562.8,205,563.7,202.5,563.7"/>
<path class="st0" d="M289.5,302.5c-1.3,0-2.6-0.2-3.8-0.8c-3.8-1.6-6-5.2-6-9.1c0-1.3,0.2-2.6,0.8-3.8c6.5-15.5,11.4-29.3,15.2-43.4
	c0.2-0.9,0.6-1.6,1-2.4h0c0.7-1.3,1.7-2.4,2.9-3.2c1.2-0.8,2.5-1.4,4-1.6h0c1.3-0.2,2.6-0.2,4,0.1c0.9,0.2,1.8,0.6,2.5,1
	c1.4,0.8,2.6,2,3.5,3.3c0.7,1.1,1.2,2.3,1.4,3.6l0,0c0.2,1.1,0.2,2.3,0,3.5c-2.8,15.1-8.7,28.8-14.3,42.1c-0.6,1.5-1.3,3-1.9,4.5
	C297.1,300.2,293.4,302.5,289.5,302.5"/>
<path class="st0" d="M216.5,429.2c-2,0-4.1-0.6-5.9-1.9c-4.4-3.2-5.3-9.4-2.1-13.8c20.9-28.3,40.5-60.4,58.5-95.4
	c2.5-4.9,8.4-6.8,13.3-4.3c4.9,2.5,6.8,8.5,4.3,13.3c-18.4,35.9-38.7,68.9-60.1,98.1C222.5,427.8,219.5,429.2,216.5,429.2"/>
<path class="st0" d="M128.9,524.4c-2.8,0-5.5-1.1-7.4-3.4c-3.6-4.1-3.2-10.4,0.9-13.9c24.4-21.3,47.4-45.1,68.4-70.8
	c3.4-4.2,9.7-4.9,13.9-1.4c4.2,3.5,4.9,9.7,1.4,13.9c-21.7,26.5-45.5,51.2-70.7,73.2C133.6,523.6,131.2,524.4,128.9,524.4"/>
<path class="st0" d="M98.4,498.6c-3.2,0-6.3-1.5-8.2-4.3c-3.1-4.5-1.9-10.6,2.6-13.7c1.3-0.9,2.7-2.6,4.2-4.3c1-1.2,2.1-2.4,3.2-3.6
	c0.1-0.1,0.2-0.2,0.3-0.3c49.2-45.1,87-92,115.4-143.3c2.6-4.8,8.6-6.5,13.4-3.9c4.8,2.6,6.5,8.7,3.9,13.4
	c-29.4,53.1-68.4,101.5-119.1,148.1c-0.6,0.6-1.3,1.4-2.1,2.3c-2.1,2.4-4.6,5.4-8.1,7.7C102.3,498,100.3,498.6,98.4,498.6"/>
<path class="st0" d="M315.9,340.5c-1.3,0-2.6-0.2-3.8-0.8c-5-2.1-7.4-7.9-5.3-12.9c2.9-6.8,6-13.4,9.1-19.8
	c4.9-10.2,9.5-19.8,12.9-29.9c3.5-10.5,8.4-30.2,1.2-44.4c-5.2-10.3-16.2-15.9-28.2-14.3c-6.3,0.8-11.6,3-15.7,6.3
	c-4.4,3.6-6.2,8.2-8.8,15.4c-7.3,19.9-16.1,43.4-26.3,66.4c-2.2,5-8.1,7.2-13,5c-5-2.2-7.2-8-5-13c10-22.5,18.7-45.6,25.8-65.2
	c2.9-7.8,6.1-16.7,14.8-23.9c6.9-5.7,15.8-9.4,25.7-10.7c20.5-2.7,39.5,7.1,48.5,25.1c9.9,19.6,5.3,43.2-0.2,59.6
	c-3.8,11.3-8.9,21.9-13.8,32.1c-3,6.2-6.1,12.6-8.7,18.9C323.4,338.2,319.8,340.5,315.9,340.5"/>
<path class="st0" d="M163.5,546.2c-2.7,0-5.4-1.1-7.3-3.2c-3.7-4-3.4-10.3,0.6-14c52.4-48,95.8-102.4,129-161.7
	c2.7-4.8,8.7-6.5,13.5-3.8s6.5,8.7,3.8,13.5c-34.2,61.2-78.9,117.2-132.9,166.6C168.3,545.3,165.9,546.2,163.5,546.2"/>
</svg>
