<?xml version="1.0" encoding="UTF-8"?><svg id="a" xmlns="http://www.w3.org/2000/svg" viewBox="0 0 101.11 17.07"><defs><style>.b{fill:#f3c938;stroke-width:0px;}</style></defs><path class="b" d="m25.75,16.91c-1.79,0-4.29-.22-7.59-.27-3.06-.05-9.48-.13-12-.78C1.85,14.74-.78,11.74.21,8.58,1.35,4.94,5.62,2.29,15.74,2.29h.5c1.83,0,3.48-.08,4.93-.16,1.44-.07,2.69-.15,3.74-.15,2.35,0,3.66.39,3.8,2.08.39,4.62.71,6.59.49,10.95-.07,1.54-1.17,1.9-3.45,1.9"/><path class="b" d="m79.34,17.07c-2.81,0-5.57-.08-8.03-.16-3.17-.11-6.43-.16-9.69-.16s-6.79.05-10.11.16c-2.22.07-4.12.1-5.74.1-12.27,0-8.63-2.14-9.73-8.54-.12-.71-.63-5.81-.3-6.49.82-1.69,10.43-1.98,25.13-1.98h2.03c6.93,0,14.31.53,21.26.68,7.37.16,15.16,1.86,16.63,6.72,2.51,8.29-9.97,9.67-21.45,9.67"/></svg>