<?xml version="1.0" encoding="utf-8"?>
<!-- Generator: Adobe Illustrator 27.8.0, SVG Export Plug-In . SVG Version: 6.00 Build 0)  -->
<svg version="1.1" id="Laag_1" xmlns="http://www.w3.org/2000/svg" xmlns:xlink="http://www.w3.org/1999/xlink" x="0px" y="0px"
	 viewBox="0 0 11797.1 574.1" style="enable-background:new 0 0 11797.1 574.1;" xml:space="preserve">
<style type="text/css">
	.st0{fill-rule:evenodd;clip-rule:evenodd;fill:#1D2943;}
	.st1{fill:#2C3A55;}
	.st2{fill:#233042;}
	.st3{opacity:0.22;}
	.st4{fill:#FFFFFF;}
	.st5{fill:#3A3736;}
</style>
<path class="st0" d="M-7.5-2.6v580.8h11806.5V-2.6L-7.5-2.6"/>
<g>
	<path class="st1" d="M1140.9,78.5h27.7c2.1,0,3.9,1,5.2,2.5c0.8,1.1,1.3,2.5,1.3,3.9v7.4c0,1.3-0.4,2.6-1.1,3.6
		c-1.1,1.7-3.1,2.9-5.4,2.9h-27.7c-1.6,0-3.1-0.6-4.3-1.6c-1.3-1.1-2.2-2.9-2.2-4.8V85c0-1.7,0.7-3.4,1.8-4.5
		C1137.4,79.2,1139.1,78.5,1140.9,78.5"/>
	<path class="st1" d="M1094.5,78.5h27.7c2.1,0,3.9,1,5.2,2.5c0.8,1.1,1.3,2.5,1.3,3.9v7.4c0,1.3-0.4,2.6-1.1,3.6
		c-1.1,1.7-3.1,2.9-5.3,2.9h-27.8c-1.6,0-3.1-0.6-4.3-1.6c-1.3-1.1-2.2-2.9-2.2-4.8V85c0-1.7,0.7-3.4,1.8-4.5
		C1091,79.2,1092.6,78.5,1094.5,78.5"/>
	<path class="st1" d="M1048.1,78.5h27.7c2.1,0,3.9,1,5.2,2.5c0.8,1.1,1.3,2.5,1.3,3.9v7.4c0,1.3-0.4,2.6-1.1,3.6
		c-1.1,1.7-3.1,2.9-5.3,2.9h-27.7c-1.6,0-3.1-0.6-4.3-1.6c-1.3-1.1-2.2-2.9-2.2-4.8V85c0-1.7,0.7-3.4,1.8-4.5
		C1044.6,79.2,1046.3,78.5,1048.1,78.5"/>
	<path class="st1" d="M1074.2,101.7h27.7c2.1,0,3.9,1,5.2,2.5c0.8,1.1,1.3,2.5,1.3,3.9v7.4c0,1.3-0.4,2.5-1.1,3.6
		c-1.1,1.7-3.1,2.9-5.3,2.9h-27.7c-1.6,0-3.1-0.6-4.3-1.6c-1.4-1.1-2.2-2.9-2.2-4.8v-7.4c0-1.7,0.7-3.4,1.8-4.5
		C1070.7,102.4,1072.3,101.7,1074.2,101.7"/>
	<path class="st1" d="M1027.8,101.7h27.7c2.1,0,3.9,1,5.2,2.5c0.8,1.1,1.3,2.5,1.3,3.9v7.4c0,1.3-0.4,2.5-1.1,3.6
		c-1.1,1.7-3.1,2.9-5.3,2.9h-27.7c-1.6,0-3.1-0.6-4.3-1.6c-1.4-1.1-2.2-2.9-2.2-4.8v-7.4c0-1.7,0.7-3.4,1.8-4.5
		C1024.3,102.4,1026,101.7,1027.8,101.7"/>
	<path class="st1" d="M1122.1,53.8h27.7c2.1,0,3.9,1,5.2,2.5c0.8,1.1,1.3,2.5,1.3,3.9v7.4c0,1.3-0.4,2.6-1.1,3.6
		c-1.1,1.7-3.1,2.9-5.3,2.9h-27.7c-1.6,0-3.1-0.7-4.3-1.6c-1.3-1.1-2.2-2.9-2.2-4.8v-7.4c0-1.7,0.7-3.4,1.8-4.5
		C1118.5,54.6,1120.2,53.8,1122.1,53.8"/>
</g>
<g>
	<path class="st1" d="M96.3,213.7H68.6c-2.1,0-3.9,1-5.2,2.5c-0.8,1.1-1.3,2.5-1.3,3.9v7.4c0,1.3,0.4,2.5,1.1,3.6
		c1.1,1.7,3.1,2.9,5.3,2.9h27.7c1.6,0,3.1-0.6,4.3-1.6c1.3-1.1,2.2-2.9,2.2-4.8v-7.4c0-1.7-0.7-3.4-1.8-4.5
		C99.8,214.5,98.1,213.7,96.3,213.7"/>
	<path class="st1" d="M142.7,213.7H115c-2.1,0-3.9,1-5.2,2.5c-0.8,1.1-1.3,2.5-1.3,3.9v7.4c0,1.3,0.4,2.5,1.1,3.6
		c1.1,1.7,3.1,2.9,5.3,2.9h27.7c1.6,0,3.1-0.6,4.3-1.6c1.3-1.1,2.2-2.9,2.2-4.8v-7.4c0-1.7-0.7-3.4-1.8-4.5
		C146.1,214.5,144.5,213.7,142.7,213.7"/>
	<path class="st1" d="M189.2,213.7h-27.7c-2.1,0-3.9,1-5.2,2.5c-0.8,1.1-1.3,2.5-1.3,3.9v7.4c0,1.3,0.4,2.5,1.1,3.6
		c1.1,1.7,3.1,2.9,5.3,2.9h27.7c1.6,0,3.1-0.6,4.3-1.6c1.3-1.1,2.2-2.9,2.2-4.8v-7.4c0-1.7-0.7-3.4-1.8-4.5
		C192.6,214.5,191,213.7,189.2,213.7"/>
	<path class="st1" d="M163,236.9h-27.7c-2.1,0-3.9,1-5.2,2.5c-0.8,1.1-1.3,2.5-1.3,3.9v7.4c0,1.3,0.4,2.5,1.1,3.6
		c1.1,1.7,3.1,2.9,5.3,2.9H163c1.6,0,3.1-0.7,4.3-1.6c1.3-1.2,2.2-2.9,2.2-4.8v-7.4c0-1.7-0.7-3.4-1.8-4.5
		C166.5,237.7,164.8,236.9,163,236.9"/>
	<path class="st1" d="M115.2,189.1H87.5c-2.1,0-3.9,1-5.2,2.5c-0.8,1.1-1.3,2.5-1.3,3.9v7.4c0,1.3,0.4,2.6,1.1,3.6
		c1.1,1.7,3.1,2.9,5.4,2.9h27.7c1.6,0,3.1-0.7,4.3-1.6c1.3-1.1,2.2-2.9,2.2-4.8v-7.4c0-1.7-0.7-3.4-1.8-4.5
		C118.6,189.9,117,189.1,115.2,189.1"/>
</g>
<g>
	<path class="st1" d="M669.5,160.3h-27.7c-2.1,0-3.9,1-5.2,2.5c-0.8,1.1-1.3,2.5-1.3,3.9v7.4c0,1.3,0.4,2.6,1.1,3.6
		c1.1,1.7,3.1,2.9,5.3,2.9h27.7c1.6,0,3.1-0.6,4.3-1.6c1.3-1.1,2.2-2.9,2.2-4.8v-7.4c0-1.7-0.7-3.4-1.8-4.5
		C673,161.1,671.3,160.3,669.5,160.3"/>
	<path class="st1" d="M716,160.3h-27.7c-2.1,0-3.9,1-5.2,2.5c-0.8,1.1-1.3,2.5-1.3,3.9v7.4c0,1.3,0.4,2.6,1.1,3.6
		c1.1,1.7,3.1,2.9,5.3,2.9H716c1.6,0,3.1-0.6,4.3-1.6c1.3-1.1,2.2-2.9,2.2-4.8v-7.4c0-1.7-0.7-3.4-1.8-4.5
		C719.4,161.1,717.8,160.3,716,160.3"/>
	<path class="st1" d="M762.3,160.3h-27.7c-2.1,0-3.9,1-5.2,2.5c-0.8,1.1-1.3,2.5-1.3,3.9v7.4c0,1.3,0.4,2.6,1.1,3.6
		c1.1,1.7,3.1,2.9,5.3,2.9h27.7c1.6,0,3.1-0.6,4.3-1.6c1.3-1.1,2.2-2.9,2.2-4.8v-7.4c0-1.7-0.7-3.4-1.8-4.5
		C765.8,161.1,764.1,160.3,762.3,160.3"/>
	<path class="st1" d="M758,218.3h-27.7c-2.1,0-3.9,1-5.2,2.5c-0.8,1.1-1.3,2.5-1.3,3.9v7.4c0,1.3,0.4,2.5,1.1,3.6
		c1.1,1.7,3.1,2.9,5.3,2.9h27.7c1.6,0,3.1-0.6,4.3-1.6c1.3-1.1,2.2-2.9,2.2-4.8v-7.4c0-1.7-0.7-3.4-1.8-4.5
		C761.4,219.1,759.8,218.3,758,218.3"/>
	<path class="st1" d="M736.2,135.7h-27.7c-2.1,0-3.9,1-5.2,2.5c-0.8,1.1-1.3,2.5-1.3,3.9v7.4c0,1.3,0.4,2.5,1.1,3.6
		c1.1,1.7,3.1,2.9,5.3,2.9h27.7c1.6,0,3.1-0.6,4.3-1.6c1.4-1.1,2.2-2.9,2.2-4.8v-7.4c0-1.7-0.7-3.4-1.8-4.5
		C739.7,136.4,738.1,135.7,736.2,135.7"/>
	<path class="st1" d="M782.7,183.5H755c-2.1,0-3.9,1-5.2,2.5c-0.8,1.1-1.3,2.5-1.3,3.9v7.4c0,1.3,0.4,2.5,1.1,3.6
		c1.1,1.7,3.1,2.9,5.3,2.9h27.7c1.6,0,3.1-0.6,4.3-1.6c1.4-1.1,2.2-2.9,2.2-4.8V190c0-1.7-0.7-3.4-1.8-4.5S784.5,183.5,782.7,183.5"
		/>
	<path class="st1" d="M688.4,135.7h-27.7c-2.1,0-3.9,1-5.2,2.5c-0.8,1.1-1.3,2.5-1.3,3.9v7.4c0,1.3,0.4,2.5,1.1,3.6
		c1.1,1.7,3.1,2.9,5.3,2.9h27.7c1.6,0,3.1-0.6,4.3-1.6c1.3-1.1,2.2-2.9,2.2-4.8v-7.4c0-1.7-0.7-3.4-1.8-4.5
		C691.9,136.4,690.3,135.7,688.4,135.7"/>
</g>
<g>
	<path class="st1" d="M425.6,120.6h27.7c2.1,0,3.9-1,5.2-2.5c0.8-1.1,1.3-2.5,1.3-3.9v-7.4c0-1.3-0.4-2.6-1.1-3.6
		c-1.1-1.7-3.1-2.9-5.3-2.9h-27.7c-1.6,0-3.1,0.6-4.3,1.6c-1.3,1.1-2.2,2.9-2.2,4.8v7.4c0,1.7,0.7,3.4,1.8,4.5
		C422.1,119.9,423.7,120.6,425.6,120.6"/>
	<path class="st1" d="M379.1,120.6h27.7c2.1,0,3.9-1,5.2-2.5c0.8-1.1,1.3-2.5,1.3-3.9v-7.4c0-1.3-0.4-2.6-1.1-3.6
		c-1.1-1.7-3.1-2.9-5.3-2.9h-27.7c-1.6,0-3.1,0.6-4.3,1.6c-1.3,1.1-2.2,2.9-2.2,4.8v7.4c0,1.7,0.7,3.4,1.8,4.5
		C375.7,119.9,377.3,120.6,379.1,120.6"/>
	<path class="st1" d="M358.8,97.4h27.7c2.1,0,3.9-1,5.2-2.5c0.8-1.1,1.3-2.5,1.3-3.9v-7.4c0-1.3-0.4-2.6-1.1-3.6
		c-1.1-1.7-3.1-2.9-5.3-2.9h-27.7c-1.6,0-3.1,0.6-4.3,1.6c-1.3,1.1-2.2,2.9-2.2,4.8v7.4c0,1.7,0.7,3.4,1.8,4.5
		C355.4,96.7,357,97.4,358.8,97.4"/>
	<path class="st1" d="M338.5,69.9h27.7c2.1,0,3.9-1,5.2-2.5c0.8-1.1,1.3-2.5,1.3-3.9V56c0-1.3-0.4-2.6-1.1-3.6
		c-1.1-1.7-3.1-2.9-5.3-2.9h-27.7c-1.6,0-3.1,0.6-4.3,1.6c-1.3,1.2-2.2,2.9-2.2,4.8v7.4c0,1.7,0.7,3.4,1.8,4.5
		C335.1,69.2,336.7,69.9,338.5,69.9"/>
	<path class="st1" d="M312.4,145.3h27.7c2.1,0,3.9-1,5.2-2.5c0.8-1.1,1.3-2.5,1.3-3.9v-7.4c0-1.3-0.4-2.6-1.1-3.6
		c-1.1-1.7-3.1-2.9-5.3-2.9h-27.7c-1.6,0-3.1,0.7-4.3,1.6c-1.3,1.1-2.2,2.9-2.2,4.8v7.4c0,1.7,0.7,3.4,1.8,4.5
		C308.9,144.5,310.6,145.3,312.4,145.3"/>
	<path class="st1" d="M358.8,145.3h27.7c2.1,0,3.9-1,5.2-2.5c0.8-1.1,1.3-2.5,1.3-3.9v-7.4c0-1.3-0.4-2.6-1.1-3.6
		c-1.1-1.7-3.1-2.9-5.3-2.9h-27.7c-1.6,0-3.1,0.7-4.3,1.6c-1.3,1.1-2.2,2.9-2.2,4.8v7.4c0,1.7,0.7,3.4,1.8,4.5
		C355.4,144.5,357,145.3,358.8,145.3"/>
	<path class="st1" d="M406.7,145.3h27.7c2.1,0,3.9-1,5.2-2.5c0.8-1.1,1.3-2.5,1.3-3.9v-7.4c0-1.3-0.4-2.6-1.1-3.6
		c-1.1-1.7-3.1-2.9-5.3-2.9h-27.7c-1.6,0-3.1,0.7-4.3,1.6c-1.3,1.1-2.2,2.9-2.2,4.8v7.4c0,1.7,0.7,3.4,1.8,4.5
		C403.2,144.5,404.8,145.3,406.7,145.3"/>
</g>
<g>
	<path class="st1" d="M1298.1,281.9h27.7c2.1,0,3.9-1,5.2-2.5c0.8-1.1,1.3-2.5,1.3-3.9v-7.4c0-1.3-0.4-2.5-1.1-3.6
		c-1.1-1.7-3.1-2.9-5.4-2.9h-27.7c-1.6,0-3.1,0.6-4.3,1.6c-1.3,1.1-2.2,2.9-2.2,4.8v7.4c0,1.7,0.7,3.4,1.8,4.5
		C1294.7,281.1,1296.3,281.9,1298.1,281.9"/>
	<path class="st1" d="M1251.7,281.9h27.7c2.1,0,3.9-1,5.2-2.5c0.8-1.1,1.3-2.5,1.3-3.9v-7.4c0-1.3-0.4-2.5-1.1-3.6
		c-1.1-1.7-3.1-2.9-5.4-2.9h-27.7c-1.6,0-3.1,0.6-4.3,1.6c-1.3,1.1-2.2,2.9-2.2,4.8v7.4c0,1.7,0.7,3.4,1.8,4.5
		C1248.2,281.1,1249.9,281.9,1251.7,281.9"/>
	<path class="st1" d="M1231.4,258.6h27.7c2.1,0,3.9-1,5.2-2.5c0.8-1.1,1.3-2.5,1.3-3.9v-7.4c0-1.3-0.4-2.6-1.1-3.6
		c-1.1-1.7-3.1-2.9-5.3-2.9h-27.7c-1.6,0-3.1,0.6-4.3,1.6c-1.3,1.2-2.2,2.9-2.2,4.8v7.4c0,1.7,0.7,3.4,1.8,4.5
		C1228,257.9,1229.6,258.6,1231.4,258.6"/>
	<path class="st1" d="M1279.3,258.6h27.7c2.1,0,3.9-1,5.2-2.5c0.8-1.1,1.3-2.5,1.3-3.9v-7.4c0-1.3-0.4-2.6-1.1-3.6
		c-1.1-1.7-3.1-2.9-5.3-2.9h-27.7c-1.6,0-3.1,0.6-4.3,1.6c-1.3,1.2-2.2,2.9-2.2,4.8v7.4c0,1.7,0.7,3.4,1.8,4.5
		C1275.8,257.9,1277.5,258.6,1279.3,258.6"/>
	<path class="st1" d="M1185.1,306.6h27.7c2.1,0,3.9-1,5.2-2.5c0.8-1.1,1.3-2.5,1.3-3.9v-7.4c0-1.3-0.4-2.5-1.1-3.6
		c-1.1-1.7-3.1-2.9-5.3-2.9h-27.7c-1.6,0-3.1,0.6-4.3,1.6c-1.3,1.2-2.2,2.9-2.2,4.8v7.4c0,1.7,0.7,3.4,1.8,4.5
		C1181.5,305.7,1183.2,306.6,1185.1,306.6"/>
	<path class="st1" d="M1231.4,306.6h27.7c2.1,0,3.9-1,5.2-2.5c0.8-1.1,1.3-2.5,1.3-3.9v-7.4c0-1.3-0.4-2.5-1.1-3.6
		c-1.1-1.7-3.1-2.9-5.3-2.9h-27.7c-1.6,0-3.1,0.6-4.3,1.6c-1.3,1.2-2.2,2.9-2.2,4.8v7.4c0,1.7,0.7,3.4,1.8,4.5
		S1229.6,306.6,1231.4,306.6"/>
	<path class="st1" d="M1279.3,306.6h27.7c2.1,0,3.9-1,5.2-2.5c0.8-1.1,1.3-2.5,1.3-3.9v-7.4c0-1.3-0.4-2.5-1.1-3.6
		c-1.1-1.7-3.1-2.9-5.3-2.9h-27.7c-1.6,0-3.1,0.6-4.3,1.6c-1.3,1.2-2.2,2.9-2.2,4.8v7.4c0,1.7,0.7,3.4,1.8,4.5
		S1277.5,306.6,1279.3,306.6"/>
</g>
<path class="st1" d="M11799.1,373.9H-7.5v-34.2h11806.5V373.9"/>
<path class="st2" d="M-7.5,577.5h11806.5V373.9H-7.5V577.5z"/>
<g>
	<path class="st1" d="M1665.1,158.4h27.7c2.1,0,3.9,1,5.2,2.5c0.8,1.1,1.3,2.5,1.3,3.9v7.4c0,1.3-0.4,2.6-1.1,3.6
		c-1.1,1.7-3.1,2.9-5.4,2.9h-27.7c-1.6,0-3.1-0.6-4.3-1.6c-1.3-1.1-2.2-2.9-2.2-4.8v-7.4c0-1.7,0.7-3.4,1.8-4.5
		C1661.7,159.2,1663.3,158.4,1665.1,158.4"/>
	<path class="st1" d="M1618.7,158.4h27.7c2.1,0,3.9,1,5.2,2.5c0.8,1.1,1.3,2.5,1.3,3.9v7.4c0,1.3-0.4,2.6-1.1,3.6
		c-1.1,1.7-3.1,2.9-5.3,2.9h-27.8c-1.6,0-3.1-0.6-4.3-1.6c-1.3-1.1-2.2-2.9-2.2-4.8v-7.4c0-1.7,0.7-3.4,1.8-4.5
		C1615.2,159.2,1616.9,158.4,1618.7,158.4"/>
	<path class="st1" d="M1572.3,158.4h27.7c2.1,0,3.9,1,5.2,2.5c0.8,1.1,1.3,2.5,1.3,3.9v7.4c0,1.3-0.4,2.6-1.1,3.6
		c-1.1,1.7-3.1,2.9-5.3,2.9h-27.7c-1.6,0-3.1-0.6-4.3-1.6c-1.3-1.1-2.2-2.9-2.2-4.8v-7.4c0-1.7,0.7-3.4,1.8-4.5
		C1568.8,159.2,1570.5,158.4,1572.3,158.4"/>
	<path class="st1" d="M1598.4,181.6h27.7c2.1,0,3.9,1,5.2,2.5c0.8,1.1,1.3,2.5,1.3,3.9v7.4c0,1.3-0.4,2.5-1.1,3.6
		c-1.1,1.7-3.1,2.9-5.3,2.9h-27.7c-1.6,0-3.1-0.6-4.3-1.6c-1.4-1.1-2.2-2.9-2.2-4.8v-7.4c0-1.7,0.7-3.4,1.8-4.5
		C1594.9,182.4,1596.5,181.6,1598.4,181.6"/>
	<path class="st1" d="M1552,181.6h27.7c2.1,0,3.9,1,5.2,2.5c0.8,1.1,1.3,2.5,1.3,3.9v7.4c0,1.3-0.4,2.5-1.1,3.6
		c-1.1,1.7-3.1,2.9-5.3,2.9h-27.7c-1.6,0-3.1-0.6-4.3-1.6c-1.4-1.1-2.2-2.9-2.2-4.8v-7.4c0-1.7,0.7-3.4,1.8-4.5
		C1548.5,182.4,1550.2,181.6,1552,181.6"/>
	<path class="st1" d="M1646.3,133.8h27.7c2.1,0,3.9,1,5.2,2.5c0.8,1.1,1.3,2.5,1.3,3.9v7.4c0,1.3-0.4,2.6-1.1,3.6
		c-1.1,1.7-3.1,2.9-5.3,2.9h-27.7c-1.6,0-3.1-0.7-4.3-1.6c-1.3-1.1-2.2-2.9-2.2-4.8v-7.4c0-1.7,0.7-3.4,1.8-4.5
		C1642.8,134.5,1644.5,133.8,1646.3,133.8"/>
</g>
<g>
	<path class="st1" d="M2014.1,122.7h27.7c2.1,0,3.9-1,5.2-2.5c0.8-1.1,1.3-2.5,1.3-3.9v-7.4c0-1.3-0.4-2.6-1.1-3.6
		c-1.1-1.7-3.1-2.9-5.3-2.9h-27.7c-1.6,0-3.1,0.6-4.3,1.6c-1.3,1.1-2.2,2.9-2.2,4.8v7.4c0,1.7,0.7,3.4,1.8,4.5
		C2010.6,122,2012.3,122.7,2014.1,122.7"/>
	<path class="st1" d="M1967.7,122.7h27.7c2.1,0,3.9-1,5.2-2.5c0.8-1.1,1.3-2.5,1.3-3.9v-7.4c0-1.3-0.4-2.6-1.1-3.6
		c-1.1-1.7-3.1-2.9-5.4-2.9h-27.7c-1.6,0-3.1,0.6-4.3,1.6c-1.3,1.1-2.2,2.9-2.2,4.8v7.4c0,1.7,0.7,3.4,1.8,4.5
		C1964.2,122,1965.8,122.7,1967.7,122.7"/>
	<path class="st1" d="M1921.3,122.7h27.7c2.1,0,3.9-1,5.2-2.5c0.8-1.1,1.3-2.5,1.3-3.9v-7.4c0-1.3-0.4-2.6-1.1-3.6
		c-1.1-1.7-3.1-2.9-5.3-2.9h-27.7c-1.6,0-3.1,0.6-4.3,1.6c-1.3,1.1-2.2,2.9-2.2,4.8v7.4c0,1.7,0.7,3.4,1.8,4.5
		C1917.8,122,1919.5,122.7,1921.3,122.7"/>
	<path class="st1" d="M1925.6,64.7h27.7c2.1,0,3.9-1,5.2-2.5c0.8-1.1,1.3-2.5,1.3-3.9v-7.4c0-1.3-0.4-2.5-1.1-3.6
		c-1.1-1.7-3.1-2.9-5.3-2.9h-27.7c-1.6,0-3.1,0.6-4.3,1.6c-1.3,1.1-2.2,2.9-2.2,4.8v7.4c0,1.7,0.7,3.4,1.8,4.5
		C1922.2,64,1923.8,64.7,1925.6,64.7"/>
	<path class="st1" d="M1947.4,147.4h27.7c2.1,0,3.9-1,5.2-2.5c0.8-1.1,1.3-2.5,1.3-3.9v-7.4c0-1.3-0.4-2.5-1.1-3.6
		c-1.1-1.7-3.1-2.9-5.3-2.9h-27.7c-1.6,0-3.1,0.6-4.3,1.6c-1.4,1.1-2.2,2.9-2.2,4.8v7.4c0,1.7,0.7,3.4,1.8,4.5
		C1943.9,146.6,1945.5,147.4,1947.4,147.4"/>
	<path class="st1" d="M1901,99.5h27.7c2.1,0,3.9-1,5.2-2.5c0.8-1.1,1.3-2.5,1.3-3.9v-7.4c0-1.3-0.4-2.5-1.1-3.6
		c-1.1-1.7-3.1-2.9-5.3-2.9H1901c-1.6,0-3.1,0.6-4.3,1.6c-1.4,1.1-2.2,2.9-2.2,4.8v7.4c0,1.7,0.7,3.4,1.8,4.5
		C1897.5,98.8,1899.2,99.5,1901,99.5"/>
	<path class="st1" d="M1995.2,147.4h27.7c2.1,0,3.9-1,5.2-2.5c0.8-1.1,1.3-2.5,1.3-3.9v-7.4c0-1.3-0.4-2.5-1.1-3.6
		c-1.1-1.7-3.1-2.9-5.4-2.9h-27.7c-1.6,0-3.1,0.6-4.3,1.6c-1.3,1.1-2.2,2.9-2.2,4.8v7.4c0,1.7,0.7,3.4,1.8,4.5
		C1991.7,146.6,1993.4,147.4,1995.2,147.4"/>
</g>
<g>
	<path class="st1" d="M2170,273.2h-27.7c-2.1,0-3.9,1-5.2,2.5c-0.8,1.1-1.3,2.5-1.3,3.9v7.4c0,1.3,0.4,2.5,1.1,3.6
		c1.1,1.7,3.1,2.9,5.3,2.9h27.7c1.6,0,3.1-0.6,4.3-1.6c1.3-1.1,2.2-2.9,2.2-4.8v-7.4c0-1.7-0.7-3.4-1.8-4.5
		C2173.5,274,2171.9,273.2,2170,273.2"/>
	<path class="st1" d="M2216.4,273.2h-27.7c-2.1,0-3.9,1-5.2,2.5c-0.8,1.1-1.3,2.5-1.3,3.9v7.4c0,1.3,0.4,2.5,1.1,3.6
		c1.1,1.7,3.1,2.9,5.3,2.9h27.7c1.6,0,3.1-0.6,4.3-1.6c1.3-1.1,2.2-2.9,2.2-4.8v-7.4c0-1.7-0.7-3.4-1.8-4.5
		C2219.9,274,2218.2,273.2,2216.4,273.2"/>
	<path class="st1" d="M2262.8,273.2h-27.7c-2.1,0-3.9,1-5.2,2.5c-0.8,1.1-1.3,2.5-1.3,3.9v7.4c0,1.3,0.4,2.5,1.1,3.6
		c1.1,1.7,3.1,2.9,5.3,2.9h27.7c1.6,0,3.1-0.6,4.3-1.6c1.3-1.1,2.2-2.9,2.2-4.8v-7.4c0-1.7-0.7-3.4-1.8-4.5
		C2266.3,274,2264.7,273.2,2262.8,273.2"/>
	<path class="st1" d="M2236.7,296.4h-27.7c-2.1,0-3.9,1-5.2,2.5c-0.8,1.1-1.3,2.5-1.3,3.9v7.4c0,1.3,0.4,2.5,1.1,3.6
		c1.1,1.7,3.1,2.9,5.3,2.9h27.7c1.6,0,3.1-0.7,4.3-1.6c1.3-1.2,2.2-2.9,2.2-4.8v-7.4c0-1.7-0.7-3.4-1.8-4.5
		C2240.2,297.1,2238.5,296.4,2236.7,296.4"/>
	<path class="st1" d="M2188.8,248.6h-27.7c-2.1,0-3.9,1-5.2,2.5c-0.8,1.1-1.3,2.5-1.3,3.9v7.4c0,1.3,0.4,2.6,1.1,3.6
		c1.1,1.7,3.1,2.9,5.4,2.9h27.7c1.6,0,3.1-0.7,4.3-1.6c1.3-1.1,2.2-2.9,2.2-4.8V255c0-1.7-0.7-3.4-1.8-4.5
		C2192.3,249.3,2190.7,248.6,2188.8,248.6"/>
</g>
<g>
	<path class="st1" d="M2520.3,155.1h27.7c2.1,0,3.9-1,5.2-2.5c0.8-1.1,1.3-2.5,1.3-3.9v-7.4c0-1.3-0.4-2.5-1.1-3.6
		c-1.1-1.7-3.1-2.9-5.3-2.9h-27.7c-1.6,0-3.1,0.6-4.3,1.6c-1.3,1.1-2.2,2.9-2.2,4.8v7.4c0,1.7,0.7,3.4,1.8,4.5
		C2516.7,154.3,2518.5,155.1,2520.3,155.1"/>
	<path class="st1" d="M2473.8,155.1h27.7c2.1,0,3.9-1,5.2-2.5c0.8-1.1,1.3-2.5,1.3-3.9v-7.4c0-1.3-0.4-2.5-1.1-3.6
		c-1.1-1.7-3.1-2.9-5.3-2.9h-27.7c-1.6,0-3.1,0.6-4.3,1.6c-1.3,1.1-2.2,2.9-2.2,4.8v7.4c0,1.7,0.7,3.4,1.8,4.5
		C2470.4,154.3,2472,155.1,2473.8,155.1"/>
	<path class="st1" d="M2453.6,131.9h27.7c2.1,0,3.9-1,5.2-2.5c0.8-1.1,1.3-2.5,1.3-3.9v-7.4c0-1.3-0.4-2.6-1.1-3.6
		c-1.1-1.7-3.1-2.9-5.3-2.9h-27.7c-1.6,0-3.1,0.6-4.3,1.6c-1.3,1.1-2.2,2.9-2.2,4.8v7.4c0,1.7,0.7,3.4,1.8,4.5
		C2450.1,131.2,2451.7,131.9,2453.6,131.9"/>
	<path class="st1" d="M2433.3,104.4h27.7c2.1,0,3.9-1,5.2-2.5c0.8-1.1,1.3-2.5,1.3-3.9v-7.4c0-1.3-0.4-2.6-1.1-3.6
		c-1.1-1.7-3.1-2.9-5.3-2.9h-27.7c-1.6,0-3.1,0.6-4.3,1.6c-1.3,1.1-2.2,2.9-2.2,4.8v7.4c0,1.7,0.7,3.4,1.8,4.5
		C2429.7,103.6,2431.4,104.4,2433.3,104.4"/>
	<path class="st1" d="M2407.1,179.7h27.7c2.1,0,3.9-1,5.2-2.5c0.8-1.1,1.3-2.5,1.3-3.9v-7.4c0-1.3-0.4-2.6-1.1-3.6
		c-1.1-1.7-3.1-2.9-5.3-2.9h-27.7c-1.6,0-3.1,0.7-4.3,1.6c-1.3,1.1-2.2,2.9-2.2,4.8v7.4c0,1.7,0.7,3.4,1.8,4.5
		C2403.7,179,2405.3,179.7,2407.1,179.7"/>
	<path class="st1" d="M2453.6,179.7h27.7c2.1,0,3.9-1,5.2-2.5c0.8-1.1,1.3-2.5,1.3-3.9v-7.4c0-1.3-0.4-2.6-1.1-3.6
		c-1.1-1.7-3.1-2.9-5.3-2.9h-27.7c-1.6,0-3.1,0.7-4.3,1.6c-1.3,1.1-2.2,2.9-2.2,4.8v7.4c0,1.7,0.7,3.4,1.8,4.5
		C2450.1,179,2451.7,179.7,2453.6,179.7"/>
	<path class="st1" d="M2501.4,179.7h27.7c2.1,0,3.9-1,5.2-2.5c0.8-1.1,1.3-2.5,1.3-3.9v-7.4c0-1.3-0.4-2.6-1.1-3.6
		c-1.1-1.7-3.1-2.9-5.3-2.9h-27.7c-1.6,0-3.1,0.7-4.3,1.6c-1.3,1.1-2.2,2.9-2.2,4.8v7.4c0,1.7,0.7,3.4,1.8,4.5
		C2497.9,179,2499.6,179.7,2501.4,179.7"/>
</g>
<g class="st3">
	<g>
		<path class="st4" d="M2557,158.8c-0.9-1.7-1.9-3.4-2.9-5.1s-2.2-3.3-3.5-4.7c-1.3-1.5-3.2-2.9-5.2-2.4c-0.3,0.1-0.7,0.3-0.8,0.6
			c-0.9,0.1-2,0.3-2.6,1.1c-0.3,0.4-0.6,0.8-0.7,1.3c-0.1,0-0.2,0.1-0.3,0.1c-0.6,0.3-0.7,0.9-0.5,1.6c0,0.1,0.1,0.2,0.1,0.2
			c0,0,0,0.1,0.1,0.2c0.1,0.2,0.1,0.2,0.2,0.4c0.1,0.4,0.2,0.7,0.3,1.1c0.2,0.7,0.3,1.5,0.4,2.1c0.1,0.3,0.1,0.6,0.2,0.9
			c-1.2,4.3-2,9-0.7,13.4c0.4,1.3,0.9,2.6,1.7,3.8c0.2,0.4,0.7,0.7,1.2,0.6c0.3-0.1,0.7-0.3,0.8-0.7c0.6-0.3,1.1-0.7,1.6-1.1h0.1
			c0.1,0,0.2-0.1,0.2-0.1c0.2-0.1,0.4-0.1,0.6-0.1c0.4-0.1,0.8-0.2,1.1-0.4c0.2,0.1,0.3,0.1,0.6,0c0.6-0.1,1.1-0.7,0.9-1.3
			c-0.2-0.6-0.6-0.9-1.1-0.9c-0.1-0.2-0.2-0.5-0.4-0.7c-0.2-0.3-0.3-0.7-0.5-0.9c1.1-0.2,2.4-0.3,3.5-0.6c0.1,0.4,0.2,0.7,0.3,1.1
			c0.2,0.6,0.3,1.1,0.6,1.7s0.4,1.2,1.1,1.6c0.6,0.3,1.3,0.2,1.9,0.1s1.1-0.1,1.6-0.2c1.1-0.1,2.2-0.2,3.4-0.3
			c0.6-0.1,1-0.8,0.9-1.3C2560.1,166.1,2558.8,162.3,2557,158.8z M2545.3,157.6L2545.3,157.6
			C2545.4,157.7,2545.3,157.7,2545.3,157.6C2545.3,157.7,2545.3,157.7,2545.3,157.6z M2546.9,163.2c0-0.6,0.1-1.2,0.2-1.8
			c0.1-0.4,0.1-0.9,0.2-1.3c0-0.2,0.1-0.4,0.1-0.7v-0.1c0,0,0,0,0-0.1s0.1-0.2,0.1-0.3c0.1-0.2,0.1-0.5,0.2-0.7
			c0.5,0.6,0.9,1.1,1.4,1.7c0.4,0.6,0.8,1.1,1.2,1.7c0.1,0.2,0.2,0.2,0.2,0.4C2549.3,162.4,2548,162.7,2546.9,163.2z"/>
		<path class="st5" d="M2558.7,160.5c-1.6-3.7-3.6-7.1-6-10.3c-0.7-0.9-1.4-1.7-2-2.6c-0.6-0.7-1.2-1.4-2-1.6
			c-0.1-0.1-0.2-0.2-0.4-0.2c-0.8,0-1.7,0.1-2.5,0.1c-0.4,0-0.8,0-1.2,0.1c-0.4,0-0.9,0-1.3,0.2c-0.3,0.2-0.6,0.4-0.8,0.7
			c-0.3,0.3-0.6,0.6-0.9,0.9c-0.6,0.6-1.1,1.1-1.6,1.6h-0.1c-0.3,0.1-0.6,0.4-0.5,0.7c1,3.4,1.2,7,0.8,10.6
			c-0.3,3.3-1.1,6.6-0.1,9.8c0.5,1.6,1.4,3.1,2.7,4.3c0.2,0.2,0.6,0.1,0.7-0.1c0.2,0.2,0.5,0.2,0.7,0c1.9-1.5,4.2-2.3,6.5-2.3
			c0.4,0,0.9-0.5,0.6-0.9c-0.7-1.1-1.3-2.2-2-3.4l1.5-0.3c0.5,1.7,1,3.4,1.5,5.1c0.2,0.4,0.7,0.7,1,0.3c1-0.9,2.2-1.4,3.5-1.5
			c1.4-0.1,2.7,0.4,4,0.8c0.2,0.1,0.4,0,0.6-0.1c0.4,0.1,0.9-0.2,0.8-0.7C2561.4,168,2560.2,164.2,2558.7,160.5z M2556.5,170.6
			c-1.2,0.1-2.4,0.6-3.4,1.2c-0.5-1.6-0.9-3.2-1.4-4.8c-0.1-0.3-0.4-0.6-0.7-0.5h-0.1h-0.1l-2.4,0.5c-0.1,0-0.2,0.1-0.2,0.1
			c-0.4,0.1-0.7,0.4-0.5,0.9c0.6,1.1,1.1,2.2,1.8,3.3c-2.3,0.2-4.5,1.1-6.3,2.5l0,0c-2.3-1.8-2.8-5-2.7-7.8c0.1-1.7,0.3-3.4,0.6-5.1
			c0.2-1.7,0.2-3.5,0.2-5.2c-0.1-1.8-0.4-3.6-0.8-5.3l1.6-1.6c0.2-0.2,0.6-0.6,0.8-0.8c0.2-0.2,0.4-0.5,0.7-0.7
			c0.2-0.1,0.7-0.1,1-0.1l1.1-0.1c0.7,0,1.4-0.1,2.1-0.1c0.1,0.1,0.2,0.1,0.3,0.1c0.7,0.1,1.2,0.9,1.7,1.4c0.6,0.7,1.2,1.5,1.8,2.2
			c1.1,1.6,2.2,3.1,3.2,4.8c1.9,3.3,3.4,6.7,4.6,10.3c0.6,1.8,1,3.6,1.4,5.5C2559.3,170.9,2558,170.5,2556.5,170.6z"/>
		<path class="st5" d="M2551.1,161.2c-0.9-1.1-1.8-2.3-2.9-3.4c-0.3-0.4-1.1-0.2-1.1,0.3l-0.2,4.3c0,0.5,0.4,0.7,0.7,0.7
			c0.1,0.1,0.2,0.1,0.4,0.1c1-0.2,2-0.5,2.9-1C2551.3,162,2551.3,161.6,2551.1,161.2z M2549.7,161.4c-0.5,0.2-1,0.4-1.5,0.5
			c0.1-0.7,0.1-1.4,0.2-2.1C2548.8,160.3,2549.3,160.8,2549.7,161.4z"/>
	</g>
	<g>
		<g>
			<path class="st4" d="M2467.2,177.6L2467.2,177.6L2467.2,177.6L2467.2,177.6z"/>
			<path class="st4" d="M2467.3,161.6c-0.9-0.8-1.9-1.6-2.8-2.5c-0.4-0.3-0.8-0.4-1.3-0.2l-1,0.2l-0.4,0.1c-0.1-0.2-0.2-0.3-0.4-0.4
				c-0.6-0.3-1.2-0.2-1.6,0.3c-1.9,2.7-3.8,5.4-5.7,8.1c-1.6,2.3-3,4.9-3.4,7.7c-0.4,2.8,0.6,5.6,2.7,7.5c1,0.9,2.2,1.6,3.5,2
				c1.5,0.3,3.1,0.4,4.5-0.3c0.8-0.5,1.4-1.1,1.9-2c0.1-0.2,0.2-0.3,0.3-0.5l0,0l0,0c0.1-0.1,0.1-0.1,0.2-0.2c0.1,0,0.2-0.1,0.2-0.1
				h0.1l0,0c0.2,0.3,0.4,0.7,0.7,1c0.7,0.7,1.7,1,2.7,0.8c0.4-0.1,0.7-0.4,0.8-0.7c0.2-0.8,0.5-1.6,0.7-2.5c0.2-1,0.5-2,0.1-2.9
				c-0.6-1.5-2.4-1.9-3.8-1.6c-0.7,0.2-1.4,0.5-2,0.9c-0.3,0.2-0.7,0.4-1,0.6c-0.2,0.1-0.3,0.2-0.5,0.2c-0.1,0.1-0.2,0.1-0.3,0.2
				c-0.1,0-0.2,0.1-0.2,0.1c-0.2,0.1-0.3,0.1-0.5,0.1c0,0,0,0-0.1,0s-0.2,0-0.2,0c-0.1,0-0.2,0-0.3,0c0.2,0-0.1,0-0.2,0
				c-0.1,0-0.2-0.1-0.2-0.1c-0.1,0-0.2-0.1-0.2-0.1l0,0c-0.2-0.1-0.2-0.2-0.4-0.2c-0.1-0.1-0.2-0.2-0.2-0.2l-0.1-0.1
				c-0.1-0.1-0.2-0.2-0.2-0.2c-0.1-0.1-0.2-0.2-0.2-0.3c0.1,0.2-0.1-0.1-0.1-0.1c0-0.1-0.1-0.2-0.1-0.2c-0.1-0.2-0.2-0.3-0.2-0.4
				l0,0c0-0.2-0.1-0.2-0.1-0.4s-0.1-0.3-0.1-0.5c0,0,0,0,0-0.1c0,0,0,0,0-0.1s0-0.2,0-0.2c0-0.2,0-0.4,0-0.6c0-0.1,0-0.2,0-0.2
				s0.1-0.3,0.1-0.2c0.1-0.3,0.2-0.6,0.2-0.9c0.1-0.2,0.2-0.3,0.2-0.5c0,0,0,0,0-0.1c0,0,0,0,0-0.1c0.1-0.1,0.1-0.2,0.2-0.3
				c0.1-0.2,0.2-0.3,0.3-0.5c0-0.1,0.1-0.1,0.2-0.2c0,0,0,0,0-0.1c0,0,0,0,0.1,0c0.1-0.1,0.2-0.2,0.3-0.2l0.2-0.1
				c0.1,0,0.2-0.1,0.2-0.1c0.1,0,0.1,0,0.2,0l0,0l0,0c0.1,0,0.1,0,0.2,0l0,0l0,0c0,0,0.1,0,0.2,0.1l0,0l0,0l0.1,0.2l0,0
				c0,0.2,0,0.4,0,0.7c0,0.5,0,1,0.2,1.4c0.4,0.8,1.4,1.3,2.3,1.1c0.6-0.2,1.1-0.7,1.1-1.2c0.1-0.3,0.1-0.7,0.1-1.1
				c0.1-0.7,0.2-1.5,0.3-2.2c0-0.2,0.1-0.3,0.1-0.4v-0.2c0-0.1,0.1-0.2,0.1-0.2c0.1-0.4,0.2-0.8,0.3-1.1c0.1-0.3,0.2-0.7,0.4-1
				c0-0.1,0.1-0.2,0.1-0.2l0,0c0,0,0-0.1,0.1-0.1c0.1-0.2,0.2-0.3,0.2-0.5c0.2-0.3,0.4-0.6,0.7-0.9l0,0l0,0c0.1-0.1,0.2-0.2,0.2-0.2
				c0.2-0.2,0.3-0.3,0.5-0.4c0.2-0.2,0.4-0.6,0.4-0.9C2467.8,162,2467.7,161.8,2467.3,161.6z"/>
		</g>
		<path class="st5" d="M2469.2,161.1c-1.6-1.1-3.1-2.3-4.8-3.4c0-0.2-0.1-0.2-0.2-0.3c-0.2-0.2-0.7-0.2-0.9,0.2
			c-0.2,0.4-0.7,0.7-1.2,0.7c-0.5,0-0.9-0.4-1.1-0.8c-0.2-0.3-0.6-0.4-0.8-0.2l0,0c-0.2,0-0.2,0.1-0.3,0.2c-1.9,2.8-3.7,5.6-5.6,8.4
			c-1.6,2.4-3.2,4.8-3.9,7.5c-0.7,2.5-0.6,5.3,0.7,7.8c1.1,2.3,3.2,4,5.7,4.5c2.6,0.5,5.4-0.2,7.1-2.2c0.2-0.2,0.4-0.2,0.6-0.4
			c0.1,0.2,0.2,0.3,0.2,0.4c0.2,0.2,0.3,0.2,0.6,0.2c1.1-0.2,2.1-0.2,3.2-0.1c0.1,0.1,0.2,0.2,0.4,0.2c0.2,0,0.5-0.1,0.6-0.3
			c0.1-0.2,0.2-0.3,0.1-0.5c0.3-2.1,0.7-4.2,1.1-6.2c0.1-0.3,0-0.7-0.3-0.7c0-0.1-0.1-0.1-0.1-0.2l-1.6-1.6
			c-0.2-0.2-0.4-0.2-0.6-0.2c-0.1,0-0.2,0-0.3,0c-0.7,0.1-1.3,0.2-2,0.2c0.1-0.1,0.1-0.2,0.1-0.2c-0.2-4.3,1.1-8.4,3.6-11.8
			c0.1-0.2,0.2-0.3,0.1-0.5C2469.4,161.5,2469.3,161.3,2469.2,161.1z M2464.6,171c-0.1,0.7-0.2,1.5-0.2,2.2
			c-0.8-0.2-1.6-0.5-2.5-0.7c-0.2-0.1-0.5-0.2-0.7-0.2h-0.1c0-0.1,0-0.2,0-0.2c-0.1-0.6-0.2-1.1-0.2-1.7c-0.1-0.3-0.4-0.6-0.7-0.5
			c-0.2,0-0.2,0.1-0.3,0.2c-0.1,0-0.1,0.1-0.2,0.2c-1.1,1.6-2,3.9-1.1,5.8c0.8,1.6,2.8,2.3,4.4,1.6c0.2-0.1,0.2-0.2,0.3-0.4
			c0.1-0.2,0.2-0.3,0.1-0.5c-0.1-0.2-0.2-0.5-0.2-0.7c1.6-0.4,3-0.7,4.6-0.8c0.5,0.5,1,0.9,1.5,1.4l0.1,0.1
			c-0.4,1.9-0.7,3.8-1.1,5.7c-1-0.1-2-0.1-2.9,0c-0.1-0.2-0.2-0.4-0.3-0.6c-0.1-0.1-0.2-0.2-0.2-0.3l0,0c-0.2-0.2-0.7-0.2-0.9-0.1
			c-0.2,0.1-0.2,0.2-0.2,0.4c-0.2,0.2-0.3,0.3-0.5,0.4c-0.2,0-0.2,0.2-0.3,0.2c-1.3,1.6-3.5,2.3-5.6,2c-2.2-0.3-4.1-1.7-5.1-3.7
			c-1.1-2-1.4-4.6-0.8-6.9c0.7-2.5,2.1-4.8,3.6-7c1.8-2.7,3.6-5.5,5.4-8.2c0.4,0.4,1,0.7,1.6,0.7c0.7,0,1.4-0.2,1.9-0.7
			c1.4,1,2.8,2,4.1,3C2466.1,164.6,2465,167.7,2464.6,171z M2461,173.5c1.1,0.3,2.2,0.7,3.3,1c-0.5,0.1-1.1,0.2-1.6,0.3
			c-0.2,0-0.2,0.1-0.3,0.2c-0.2,0.1-0.5,0.2-0.5,0.6c0,0.3,0,0.7,0.1,1c-1,0.2-2.1-0.4-2.5-1.4c-0.2-0.7-0.2-1.6,0-2.3
			c0.1-0.2,0.2-0.4,0.2-0.7v0.1C2460,173.1,2460.4,173.4,2461,173.5z"/>
	</g>
	<g>
		<g>
			<path class="st4" d="M2483.2,159.7c-0.6-0.4-1.2-0.7-1.8-1c-0.6-0.2-1.3-0.5-2-0.4c-1.3,0-2.7,0.7-3,2.1c-0.2,0.8,0,1.5,0.2,2.3
				c0.2,0.7,0.4,1.5,0.6,2.2c0.4,1.4,0.7,2.8,1.1,4.3c0.1,0.2,0.2,0.5,0.2,0.7c-0.2,0-0.5,0.1-0.7,0.1h-0.3c-0.2,0-0.4,0-0.6,0
				c-0.3,0-0.7,0-1,0c-0.2,0-0.3,0-0.4-0.1c0-0.1-0.1-0.2-0.1-0.3c-0.1-0.4-0.2-0.8-0.2-1.1c-0.3-1.5-0.6-2.9-0.7-4.3
				c-0.1-0.7-0.2-1.5-0.2-2.2c0-0.2-0.1-0.4-0.2-0.6c0.1-0.2,0.2-0.3,0.2-0.5c0-0.7-0.4-1.1-1.1-1.2c-1.7-0.2-3.4,0.7-4.5,2.1
				c-1.1,1.6-1,3.4-0.8,5.2c0.3,3.8,0.6,7.6,1.5,11.3c0.5,2.1,1.2,4.2,2.2,6.1c0.3,0.7,1.6,0.9,2,0.2l0,0l0,0c0,0,0.1,0,0.1-0.1l0,0
				c0.1,0,0.1,0,0.2-0.1c0.2,0,0.2-0.1,0.4-0.1c0.7-0.2,1.4-0.6,1.7-1.2c0.7-1.4,0.2-2.9-0.2-4.3c-0.1-0.3-0.2-0.7-0.2-1
				c0-0.2,0-0.2-0.1-0.4l0,0l0,0c0-0.1,0-0.2,0-0.2c0-0.2,0-0.3,0-0.4s0-0.2,0-0.2l0,0l0,0c0-0.2,0.1-0.2,0.1-0.4
				c0-0.1,0.1-0.1,0.1-0.2l0,0c0,0,0,0,0-0.1c0.1-0.1,0.2-0.2,0.2-0.3l0,0l0.1-0.1c0.1-0.1,0.1-0.1,0.2-0.2c0,0,0,0,0.1-0.1
				c0.1,0,0.2-0.1,0.2-0.1c0.1,0,0.2-0.1,0.2-0.1c0,0,0,0,0.1,0s0.2-0.1,0.2-0.1c0.1,0,0.2-0.1,0.3-0.1c-0.2,0,0.1,0,0.2,0l0,0
				c0.1,0,0.2,0,0.2,0.1h0.1l0,0c0.1,0.1,0.2,0.2,0.3,0.2l0.1,0.1c0.1,0.1,0.2,0.2,0.2,0.3c0,0-0.2-0.2,0,0c0,0.1,0.1,0.1,0.1,0.2
				c0.1,0.1,0.1,0.2,0.2,0.3c0.1,0.2,0.2,0.5,0.3,0.7c0.1,0.2,0.1,0.2,0.2,0.4c0,0.1,0,0.1,0.1,0.2l0,0c0.1,0.2,0.2,0.5,0.2,0.7
				c0.2,0.7,0.5,1.4,0.8,2s0.7,1.3,1.1,1.9c0.5,0.7,1.3,1,2.2,0.8c0.7-0.2,1.4-0.3,2-0.6c0.9-0.2,1.7-0.5,2.1-1.4
				c0.3-0.7,0.1-1.4-0.1-2c-0.2-0.7-0.5-1.3-0.8-2c-0.2-0.3-0.2-0.7-0.4-1c-0.2-0.4-0.2-0.7-0.3-0.9c-0.2-0.7-0.4-1.4-0.5-2.1
				c-0.2-1.5-0.3-2.9-0.5-4.3c-0.2-1.5-0.2-2.9-0.4-4.5c-0.1-0.7-0.1-1.5-0.2-2.2C2484.3,160.8,2483.9,160.2,2483.2,159.7z"/>
			<path class="st4" d="M2481.4,177.2C2481.4,177.3,2481.4,177.3,2481.4,177.2C2481.4,177.3,2481.4,177.3,2481.4,177.2L2481.4,177.2
				z"/>
		</g>
		<path class="st5" d="M2485.8,160.8c0-0.3-0.2-0.6-0.4-0.6c-0.1-0.1-0.1-0.1-0.2-0.2c-2.1-1.1-4.4-2-6.8-2.6c-0.2,0-0.3,0-0.4,0
			c-0.2-0.1-0.6,0-0.7,0.2c-0.5,0.6-1,1.2-1.4,1.9c-0.1,0.1-0.1,0.2-0.1,0.2c-0.2,0.2-0.2,0.3-0.2,0.5c0.8,2.9,1.6,5.8,2.2,8.8
			c-0.5,0-1,0.1-1.5,0.2c-0.4-2-0.7-4.1-0.9-6.1c-0.1-1.1-0.2-2.2-0.2-3.3c0-0.2-0.1-0.5-0.2-0.7c-0.2-0.2-0.5-0.2-0.7-0.3
			c-0.6-0.2-1.1-0.2-1.6-0.4c-0.1,0-0.2,0-0.3,0c-0.2-0.2-0.5-0.2-0.7-0.1c-0.7,0.4-1.3,0.8-2,1.2c-0.6,0.4-1.3,0.7-1.8,1.2
			c-0.6,0.5-0.7,1.1-0.8,1.8s-0.1,1.5-0.1,2.2c-0.1,2.9,0.2,6,0.7,8.8c0.5,2.9,1.1,5.8,2.1,8.7c0.2,0.7,0.5,1.4,0.7,2.1
			c0.2,0.7,0.7,1.3,1.5,1.2c0.7-0.1,1.5-0.4,2.1-0.7c0.7-0.2,1.3-0.6,2-0.9c0.7-0.4,1.5-0.7,1.4-1.6c0-0.4-0.2-0.7-0.3-1.1
			c-0.2-0.4-0.2-0.7-0.3-1.1c-0.4-1.5-0.6-3-0.5-4.6l1.9-0.2c0.3,2,1,4,1.8,5.8c0.2,0.5,0.5,1,0.7,1.5c0.2,0.4,0.6,0.9,1.1,1
			c0.6,0.1,1.1-0.2,1.6-0.3c0.6-0.2,1.1-0.3,1.6-0.6c1.3-0.4,2.5-0.9,3.9-1.4c0.3-0.1,0.4-0.6,0.2-0.8c-0.1-0.1-0.2-0.2-0.2-0.2
			c0-0.1,0-0.2-0.1-0.2c-2-4.8-3.1-9.9-3.2-15.1C2485.6,163.8,2485.7,162.3,2485.8,160.8z M2486.3,176.5c0.4,1.4,0.9,2.8,1.5,4.2
			c-1.8,0.7-3.5,1.3-5.3,1.8c-0.1,0-0.2,0.1-0.3,0.1l0,0c-0.1-0.1-0.2-0.3-0.2-0.4c-0.2-0.4-0.5-0.9-0.7-1.4
			c-0.4-0.9-0.7-1.8-1.1-2.7c-0.3-1.1-0.6-2.2-0.7-3.4c-0.1-0.4-0.4-0.6-0.7-0.5c-0.1,0-0.2,0-0.2,0c-0.8,0.1-1.6,0.2-2.5,0.3
			c-0.2,0-0.3,0.1-0.4,0.2c-0.2,0.1-0.4,0.2-0.4,0.5c-0.1,1.4,0,2.7,0.2,4.1c0.1,0.7,0.3,1.3,0.5,2c0.1,0.3,0.2,0.6,0.3,0.9
			c0.1,0.2,0.1,0.2,0,0.4c-0.5,0.3-1.1,0.7-1.6,0.9c-0.6,0.2-1.2,0.5-1.8,0.7c-0.2,0.1-0.3,0.1-0.4,0.2c-0.1,0-0.2,0.1-0.3,0.1
			c0,0,0,0,0-0.1c0-0.2-0.1-0.3-0.2-0.4c-0.2-0.7-0.5-1.2-0.7-1.9c-1.7-5.1-2.6-10.5-2.7-15.9c0-0.7,0-1.6,0-2.3
			c0-0.3,0-0.7,0.1-1.1c0-0.3,0-0.7,0.2-0.9c0.2-0.2,0.4-0.3,0.7-0.5c0.3-0.2,0.7-0.4,1-0.7c0.7-0.4,1.2-0.8,1.9-1.2
			c0.1,0,0.1,0.1,0.2,0.1c0.3,0.1,0.7,0.2,1.1,0.2c0.2,0,0.3,0.1,0.5,0.1l0.3,0.1l0,0c0,0.3,0,0.7,0,0.9c0,0.4,0.1,0.8,0.1,1.3
			c0.1,0.8,0.2,1.7,0.2,2.5c0.2,1.7,0.5,3.4,0.8,5.1c0.1,0.2,0.2,0.4,0.4,0.5c0.2,0.2,0.3,0.2,0.6,0.2c0.6-0.2,1.1-0.2,1.8-0.3
			c0.2,0,0.5-0.2,0.7-0.4c0.3,0,0.7-0.3,0.6-0.7c-0.7-3-1.4-6.1-2.2-9l0,0c0.3-0.6,0.7-1.1,1.1-1.6c2.2,0.5,4.4,1.3,6.5,2.5
			C2484.1,166.2,2484.7,171.6,2486.3,176.5z"/>
	</g>
	<g>
		<path class="st4" d="M2443.2,160c-0.4-0.6-1.1-1-1.7-1.1c-0.2-0.2-0.5-0.5-0.8-0.5c-0.7-0.1-1.5,0.2-2,0.7c-0.6,0.6-0.8,1.2-1,2
			c-0.1,0.6-0.1,1.1-0.1,1.7s0.1,1.2,0.2,1.8c0.3,1.2,0.9,2.4,2,3.1c0.7,0.5,1.4,0.6,2.1,0.3c0.5,0.1,0.9,0,1.4-0.4
			c0.5-0.4,0.7-1.1,0.7-1.8c0.2-0.8,0.3-1.6,0.2-2.5C2444.2,162.1,2443.8,161,2443.2,160z"/>
		<path class="st4" d="M2454.5,182.8c-0.4-1.8-1.1-3.5-2-5.2c-0.4-0.8-0.8-1.6-1.2-2.4c-0.4-0.7-0.8-1.4-1.1-2.1l0,0l0,0
			c0-0.1-0.1-0.2-0.1-0.3c0-0.1,0-0.3,0-0.1c0-0.1,0-0.1,0-0.2c0,0,0-0.2,0.1-0.2c0.1-0.3,0.2-0.6,0-0.8c-0.1-0.3-0.4-0.7-0.6-0.9
			c-0.6-0.8-1.2-1.7-1.8-2.5c-0.3-0.5-1.2-0.5-1.6-0.1c-0.1,0.1-0.2,0.2-0.2,0.2c-1.9,0.7-3.5,1.6-5.1,2.9c-0.5,0.4-0.4,1.1-0.1,1.6
			c-0.1-0.2,0.2,0.2,0.2,0.2c0.1,0.2,0.2,0.2,0.2,0.4c0.2,0.2,0.3,0.5,0.5,0.8c0.2,0.5,0.6,1,0.7,1.5c0.2,0.5,0.5,1.1,0.7,1.6
			c0.1,0.2,0.1,0.2,0.2,0.4l0,0c0,0.1,0.1,0.2,0.1,0.2c0.1,0.2,0.2,0.6,0.2,0.8c0.3,1.1,0.6,2.2,0.7,3.4c0,0.3,0.1,0.6,0.1,0.9
			c0,0.1,0,0.2,0,0.2v0.3c0,0.6,0,1.2,0,1.8c0,0.7,0.7,1.4,1.4,1.2c0.9-0.2,1.8-0.5,2.7-0.7c0.4-0.1,0.8-0.2,1.2-0.2
			c0.2,0,0.4-0.1,0.7-0.1c0.1,0,0.2,0,0.3,0c0.1,0,0.2,0,0.2,0c-0.1,0-0.1,0,0.1,0c0.9-0.1,1.9,0.1,2.7-0.2c0.5-0.2,0.8-0.6,1-1.1
			C2454.7,183.8,2454.6,183.3,2454.5,182.8z M2452.4,183.7c0,0.1,0,0.2,0,0.2S2452.3,183.8,2452.4,183.7z"/>
		<path class="st5" d="M2455.3,181.5c-0.3-1.6-0.9-3.1-1.6-4.6c-0.7-1.5-1.6-2.9-2.6-4.3c0.1-0.2,0.2-0.2,0.2-0.4
			c0.2-0.3,0.2-0.7,0-1c-0.4-0.6-0.9-1.1-1.3-1.6c-0.8-1.1-1.7-2.2-2.5-3.3c-0.2-0.2-0.7-0.2-0.9-0.1c-0.7,0.6-1.4,1.1-2,1.6
			c0.1-0.1,0.1-0.2,0.2-0.3c0.8-2.1,1.5-4.3,0.4-6.5c-0.6-1.1-1.4-2.1-2.4-2.9c-0.9-0.7-2.3-1.1-3.4-0.5c0,0,0,0-0.1,0
			c-1.8,0.8-2.7,2.9-2.6,4.8c0.1,1.1,0.3,2.2,0.7,3.3c0.4,1,0.9,1.9,1.8,2.5c0.8,0.6,1.9,0.9,2.9,0.9c0.2,0,0.4,0,0.6,0
			c-1,0.7-2,1.2-3.2,1.7c-0.3,0.2-0.4,0.5-0.3,0.7c-0.2,0.2-0.1,0.5,0.1,0.7c2.3,3.2,3.7,7,4.1,11c0.1,1.1,0.2,2.2,0.1,3.4
			c0,0.4,0.3,0.7,0.7,0.7l5.4-0.7c0.9-0.1,1.8-0.2,2.7-0.3c0.4-0.1,0.8-0.1,1.2-0.2c0.4-0.1,0.9-0.1,1.3-0.2
			c0.4-0.1,0.7-0.4,0.8-0.8c0.1-0.4,0-0.8,0-1.2C2455.6,183.1,2455.5,182.3,2455.3,181.5z M2440.2,167.4c-1.5-0.8-2-2.8-2.2-4.3
			c-0.2-1.7,0.2-3.7,2-4.3c0.1,0,0.1-0.1,0.2-0.1c0.7-0.2,1.3,0.1,1.9,0.5c0.7,0.5,1.2,1.2,1.7,2c0.5,0.7,0.7,1.6,0.7,2.5
			c0,0.9-0.3,1.8-0.6,2.6c-0.2,0.4-0.2,0.8-0.5,1.2c-0.2,0.3-0.5,0.3-0.9,0.3C2441.7,167.9,2440.9,167.8,2440.2,167.4z
			 M2454.3,183.1c0.1,0.3,0.1,0.7,0.2,1.1c0,0.2,0,0.4,0.1,0.6l0,0l0,0l0,0c-0.2,0-0.3,0.1-0.5,0.1c-0.2,0-0.4,0.1-0.7,0.1
			c-0.4,0.1-0.9,0.1-1.3,0.2c-0.8,0.1-1.6,0.2-2.5,0.3c-1.6,0.2-3.3,0.4-4.9,0.7c0.1-3.9-0.8-7.9-2.6-11.5c-0.5-1-1.1-1.9-1.6-2.8
			c2.3-1.1,4.5-2.5,6.6-4.1c1.1,1.4,2.2,2.8,3.3,4.2c-0.1,0.1-0.1,0.2-0.2,0.2c-0.2,0.2-0.2,0.3-0.2,0.5c-0.1,0.2-0.1,0.4,0.1,0.6
			c1.8,2.3,3.2,4.9,3.9,7.8C2454.1,181.6,2454.2,182.4,2454.3,183.1z"/>
	</g>
	<g>
		<g>
			<path class="st4" d="M2439.6,167.7c-0.9-2.4-1.8-5.6-4.7-6.3c-1.2-0.3-2.5-0.2-3.6,0.2c-1.1,0.5-2,1.4-2.5,2.5
				c-0.5,1.1-0.6,2.5-0.6,3.8c0,0.7,0,1.2-0.1,1.9c0,0.2,0,0.3-0.1,0.4c0,0,0,0,0,0.1c0,0,0,0,0,0.1c0,0,0,0-0.1,0
				c0,0-0.2-0.1-0.2-0.1c-0.1-0.1-0.2-0.1-0.2-0.2c-0.2-0.2-0.4-0.2-0.6-0.4c-0.2-0.1-0.3-0.2-0.5-0.4l0,0c0,0,0,0-0.1,0
				c-0.1-0.1-0.2-0.2-0.2-0.2c-0.3-0.3-0.6-0.7-0.8-1l-0.1-0.1l0,0c-0.1-0.1-0.1-0.2-0.2-0.2c-0.1-0.2-0.2-0.4-0.3-0.6
				c-0.3-0.6-0.7-1.1-1.3-1.4c-0.5-0.2-1-0.2-1.6-0.2l-1.7,0.1c-1.2,0.1-2.5,0.1-3.7,0.2c-0.2-0.2-0.4-0.3-0.7-0.3
				c-0.6,0-1.2,0.4-1.2,1.1c0.1,1.6,0.5,3.3,1.5,4.8c0.2,0.3,0.5,0.7,0.7,1.1c0,0,0.2,0.2,0.1,0.1c0,0.1,0.1,0.1,0.1,0.2
				c0.1,0.1,0.1,0.2,0.2,0.2l0.1,0.2c0,0.1,0,0.2,0.1,0.3v0.2c0,0.2,0,0.3,0,0.6c0,0.4,0,0.8,0,1.2c0.1,3.4,0.4,6.8,1.1,10.1
				c0.3,1.9,0.7,3.7,1.3,5.5c0.2,0.6,0.7,1.1,1.3,0.9c2.1-0.7,4.1-1.8,5.7-3.4c0.4-0.4,0.6-1.1,0.1-1.6c-0.3-0.3-0.7-0.7-1-1
				c-0.2-0.2-0.2-0.3-0.4-0.6c0-0.1-0.1-0.1-0.1-0.2l0,0c-0.1-0.1-0.1-0.2-0.2-0.2c-0.1-0.1-0.2-0.2-0.2-0.3c-0.2-1.1-0.5-2-0.6-3.1
				c0-0.2,0-0.2,0-0.4V181v-0.1c0-0.7,0.1-1.2,0-1.9c0.1,0.1,0.2,0.1,0.2,0.2c0.2,0.2,0.4,0.2,0.6,0.4c0,0,0.1,0,0.1,0.1l0.1,0.1
				c0.1,0.1,0.2,0.2,0.3,0.3c0.3,0.3,0.7,0.7,1,1.1l0,0c0,0.1,0.1,0.1,0.1,0.2c0.1,0.1,0.2,0.2,0.2,0.3c0.2,0.2,0.2,0.5,0.4,0.7
				c0.1,0.2,0.2,0.5,0.3,0.8c0,0.1,0.1,0.2,0.1,0.2c0.1,0.2,0.1,0.2,0.1,0.4c0.1,0.2,0.2,0.6,0.2,0.8c0,0.2,0,0.3,0.1,0.4v0.1
				c0,0,0,0.1,0,0.2c0,0.4,0.2,0.8,0.5,1.1c0.3,0.2,0.8,0.2,1.1,0.1c0.9-0.5,1.7-1,2.6-1.5c0.4-0.2,0.7-0.7,0.6-1.2
				c-0.2-0.8-0.4-1.7-0.6-2.6c-0.1-0.4-0.2-0.9-0.2-1.3c0-0.2-0.1-0.4-0.1-0.7c0-0.1,0-0.2,0-0.3l0,0l0,0l0,0v-0.1v-0.1
				c0-0.4,0-0.9,0-1.3c0-0.2,0-0.4,0.1-0.6c0-0.1,0-0.2,0.1-0.2c0-0.1,0-0.1,0-0.2c0.1-0.4,0.2-0.8,0.3-1.1c0-0.1,0.1-0.2,0.2-0.3
				c0,0,0,0,0-0.1v-0.1c0.1-0.1,0.1-0.2,0.2-0.3c0.2,0.3,0.4,0.7,0.6,1c0.5,1,0.9,1.9,1.3,2.9v0.1v0.1c0.1,0.2,0.1,0.2,0.2,0.4
				c0.1,0.2,0.2,0.5,0.2,0.8c0.2,0.5,0.2,1.1,0.3,1.6c0.1,0.5,0.2,1.1,0.2,1.6s0.1,1.1,0.2,1.6c0.2,0.7,0.7,1.3,1.4,1.6
				c0.5,0.2,1.1,0.3,1.6,0.5c1.3,0.2,2.6,0.5,3.9,0.6c0.8,0.1,1.3-0.7,1.2-1.4C2443.2,179.4,2441.7,173.4,2439.6,167.7z"/>
			<path class="st4" d="M2431.9,178.7C2431.9,178.6,2431.9,178.6,2431.9,178.7C2431.9,178.7,2431.9,178.7,2431.9,178.7L2431.9,178.7
				z"/>
		</g>
		<path class="st5" d="M2440.9,167.9c-0.7-1.6-1.3-3.3-2.1-4.9c-0.1-0.1-0.1-0.2-0.2-0.2c0-0.2-0.2-0.4-0.4-0.5
			c-1.2-0.6-2.5-1.1-3.7-1.6c-0.3-0.2-0.6-0.2-0.9-0.4c-0.2-0.2-0.6-0.2-0.9-0.2c-0.3,0-0.6,0.2-0.9,0.4c-0.2,0.2-0.6,0.3-0.8,0.5
			c-1.1,0.7-2.1,1.5-3.2,2.3c-0.2,0.2-0.4,0.3-0.6,0.6c-0.2,0.2-0.2,0.6-0.2,0.9c0.1,0.7,0.2,1.4,0.2,2c0.1,0.7,0.2,1.5,0.2,2.2
			c-0.9-1.2-1.8-2.5-2.8-3.7c-0.3-0.4-0.8-0.7-1.4-0.7c-0.6,0-1.2,0.1-1.8,0.1c-1.2,0.1-2.5,0.1-3.7,0.2c-1.4,0.1-2.8,0.2-4.2,0.2
			c-0.3,0-0.7,0.3-0.7,0.7c0.4,1.6,0.9,3.1,1.4,4.6c0.2,0.4,0.2,0.7,0.4,1.1c0.2,0.3,0.2,0.7,0.5,1.1s0.6,0.5,0.9,0.6
			c-0.2,5.2,0.4,10.5,2,15.5c0.2,0.7,0.4,1.3,0.7,2c0.2,0.6,0.4,1.2,0.7,1.8c0.2,0.3,0.6,0.5,0.9,0.4c0.3-0.1,0.7-0.3,1-0.5
			c0.6-0.3,1.2-0.7,1.8-1.1c1.2-0.7,2.5-1.4,3.7-2.1c0.6-0.3,1.1-0.7,1-1.5c-0.1-0.7-0.7-1.1-1-1.6c-1.3-2-2.1-4.3-2.3-6.8
			c0.2,0.2,0.2,0.4,0.4,0.6c0.4,0.7,0.8,1.6,1.2,2.4c0.7,1.6,1.2,3.2,1.7,4.9c0.1,0.4,0.4,0.5,0.7,0.5c0.2,0.1,0.4,0.1,0.6-0.2
			c1.2-1.1,2.6-2.1,4.3-2.8c0,0,0.1,0,0.1-0.1c0.2-0.1,0.5-0.4,0.4-0.7c-0.8-2.8-1.1-5.7-0.8-8.4c1.2,3,1.6,6.3,1.1,9.6
			c-0.1,0.3,0.2,0.7,0.6,0.7c0.1,0,0.2,0,0.2,0c0.1,0.1,0.2,0.1,0.2,0.1c1.7,0.4,3.4,0.7,5.2,1.1c0.8,0.2,1.7,0.4,2.5,0.6
			c0.5,0.1,1.1-0.1,1.3-0.6c0.2-0.1,0.2-0.2,0.2-0.4C2444.5,180.2,2443.2,173.9,2440.9,167.9z M2442.3,186.1
			c-0.7-0.2-1.4-0.3-2.1-0.5c-1.4-0.3-2.8-0.7-4.3-0.9h-0.1c0.5-3.9-0.3-8-2.2-11.5c-0.3-0.6-1.1-0.3-1.1,0.2
			c-0.7,3.4-0.6,7,0.4,10.3c-1.3,0.6-2.5,1.4-3.7,2.4c-0.4-1.6-1-3.2-1.7-4.8c-0.4-0.8-0.7-1.6-1.2-2.5c-0.4-0.7-1-1.3-1.9-1.4
			c-0.3,0-0.7,0.2-0.7,0.6c0,2.4,0.5,4.7,1.5,6.8c0.2,0.5,0.6,1.1,0.8,1.6c0.2,0.2,0.3,0.5,0.5,0.7c0.2,0.2,0.4,0.4,0.5,0.7l0,0
			c-0.1,0.1-0.2,0.1-0.2,0.2c-0.2,0.2-0.6,0.3-0.9,0.5c-0.6,0.3-1.1,0.7-1.7,1c-0.7,0.3-1.3,0.7-2,1.1c-0.3,0.2-0.6,0.3-0.9,0.5
			c-0.2,0.1-0.3,0.2-0.5,0.2c0,0-0.1,0-0.1,0.1c-0.1-0.2-0.1-0.2-0.2-0.4c-0.2-0.3-0.2-0.7-0.3-0.9c-0.2-0.6-0.4-1.1-0.7-1.8
			c-0.4-1.2-0.7-2.5-1-3.7c-0.6-2.5-0.9-5-1-7.5c-0.1-1.5,0-2.9,0.1-4.3c0-0.2,0-0.2-0.1-0.4c-0.1-0.5-0.6-0.8-1-0.4l-0.1-0.1
			c-0.2-0.2-0.2-0.6-0.3-0.8c-0.2-0.6-0.4-1.1-0.6-1.7c-0.3-1-0.7-2-0.9-2.9c2-0.1,4.1-0.2,6.1-0.2c0.6,0,1.1-0.1,1.7-0.1
			c0.3,0,0.6,0,0.9,0c0.2,0,0.3,0,0.4,0c0.2,0.1,0.3,0.4,0.5,0.6c0.2,0.2,0.3,0.4,0.5,0.7c0.3,0.4,0.7,0.9,1,1.3c0.7,1,1.5,2,2.1,3
			c0.2,0.2,0.5,0.4,0.7,0.3c0.3-0.1,0.5-0.4,0.5-0.7c-0.2-1.2-0.2-2.5-0.4-3.7c-0.1-0.7-0.2-1.2-0.2-1.9c0-0.3-0.1-0.6-0.1-0.9
			c0-0.2-0.1-0.2,0.1-0.4c0.9-0.7,1.8-1.5,2.8-2c0.5-0.3,1-0.7,1.5-0.9c0,0,0.1-0.1,0.2-0.1c0.1,0.1,0.2,0.1,0.3,0.2
			c0.2,0.2,0.6,0.2,0.8,0.4c1.2,0.6,2.4,1.1,3.6,1.6c0,0.1,0,0.1,0.1,0.2c2.7,5.6,4.5,11.6,5.4,17.8c0.2,1.6,0.4,3.3,0.5,4.9
			l-0.1,0.1c-0.1,0-0.1,0-0.2,0C2443,186.3,2442.7,186.2,2442.3,186.1z"/>
	</g>
	<g>
		<path class="st4" d="M2500.2,174.2c-1.1-4.2-2.5-8.3-4.5-12.1c-0.2-0.4-0.4-0.8-0.7-1.2c0.9,0.1,1.8,0.2,2.8,0.2
			c0.6,0.1,1.1-0.5,1.1-1.1c0-1.3,0.1-2.7,0.3-4c0-0.1,0-0.2,0-0.2l0,0l0,0c0-0.2,0.1-0.3,0.1-0.5c0.1-0.3,0.2-0.7,0.2-1
			c0.2-0.7,0.3-1.3,0.5-2c0.2-0.7-0.3-1.4-1.1-1.5c-5-0.4-10.1-0.4-15.1,0.1c-1.4,0.2-2.8,0.3-4.1,0.5c-0.2-0.4-0.8-0.7-1.2-0.5
			c-0.7,0.2-1,0.7-0.8,1.4c0.4,2,0.7,3.9,1,5.8c-0.2,0.5-0.3,1.1,0,1.6c0.7,1.1,2,0.9,3,0.7c0.5-0.1,1.1-0.2,1.6-0.3
			c0.2-0.1,0.5-0.1,0.7-0.2c0,0,0.1,0,0.2,0h0.1c0.2,0,0.3,0,0.4,0c0.2,0,0.2,0,0.4,0c0,0,0.2,0,0.2,0c0.1,0,0.1,0,0.1,0
			c0.1,0,0.1,0,0.2,0c0.2,0,0.2,0.1,0.4,0.2c-0.2-0.1,0,0,0.1,0.1c0.1,0,0.2,0.1,0.2,0.2c0,0,0.1,0.1,0.2,0.1l0,0
			c0.1,0.1,0.1,0.1,0.2,0.2c0.2,0.2,0.2,0.2,0.3,0.4c0,0,0,0.1,0.1,0.1c0.1,0.1,0.1,0.2,0.2,0.2c0.1,0.2,0.2,0.3,0.2,0.5
			c0,0.1,0.1,0.2,0.1,0.2c0,0.1,0.1,0.2,0.1,0.2c0.2,0.8,0.4,1.6,0.5,2.5l0,0l0,0c0,0.2,0,0.3,0,0.4c0,0.3,0.1,0.7,0.1,0.9
			c0.1,0.6,0.1,1.1,0.1,1.7c0.1,2.6,0.1,5.2-0.2,7.9c-0.1,0.6,0.5,1.1,1.1,1.1c3.4,0.1,6.7-0.3,9.9-1.1
			C2500,175.4,2500.4,174.8,2500.2,174.2z"/>
		<path class="st5" d="M2501,175.3c-0.5-4.8-2.1-9.5-4.8-13.5c-0.1-0.1-0.2-0.2-0.2-0.3c0.5,0.1,1.1,0.1,1.6,0.2
			c0.7,0.1,1.5,0.3,2-0.2c0.4-0.5,0.3-1.2,0.3-1.9c0.1-0.7,0.2-1.4,0.2-2c0.2-1.3,0.6-2.7,1.1-4c0.2-0.6,0.6-1.3,0.4-1.9
			c-0.2-0.7-0.9-1-1.5-1.1c-4.4-1.7-9.3-0.6-13.8-0.2c-2.6,0.2-5.2,0.2-7.7-0.6c-0.3-0.1-0.7,0.1-0.7,0.3c-0.3,0-0.6,0.2-0.6,0.6
			c0.2,2.5,0.3,5.2,0.4,7.7c0,0.6,0,1.2,0.1,1.9c0.1,0.6,0.4,1.1,1.1,1.2c0.6,0.2,1.1,0,1.7-0.1c0.7-0.1,1.2-0.1,1.9-0.2
			c1.3-0.1,2.5-0.2,3.9-0.3c0.8,4.1,1.2,8.3,1.1,12.5c0,1.2-0.1,2.5-0.2,3.7c0,0.3,0.2,0.7,0.6,0.7c4.3-0.1,8.6-0.7,12.8-1.6
			C2500.8,175.8,2501,175.6,2501,175.3z M2488.5,176.2c0.3-4.2,0.2-8.4-0.4-12.6c-0.2-1.2-0.4-2.5-0.7-3.7c-0.1-0.2-0.3-0.5-0.6-0.5
			c-2.4,0.2-4.7,0.4-7,0.7c-0.2,0-0.4,0-0.7,0c-0.2,0-0.1,0-0.1,0c-0.1-0.1-0.1-0.2-0.1-0.2c-0.1-0.6-0.1-1.1-0.1-1.6l-0.2-3.5
			c-0.1-1.2-0.2-2.5-0.2-3.8c4.2,1.3,8.6,0.3,12.9-0.1c2.1-0.2,4.3-0.3,6.4,0.1c0.5,0.1,1.1,0.2,1.6,0.4c0.2,0.1,0.5,0.2,0.7,0.2
			c0.1,0.1,0.2,0.1,0.3,0.2c0,0,0.1,0,0.1,0.1v0.1c-0.4,1.1-0.8,2.3-1.1,3.5c-0.3,1.4-0.6,2.9-0.7,4.3c0,0.2,0,0.4,0,0.6v0.1
			c-0.1,0-0.2,0-0.2,0c-0.2,0-0.4-0.1-0.6-0.1c-0.7-0.1-1.5-0.2-2.3-0.2c-0.1,0-0.2,0-0.3,0.1c-0.5-0.6-0.9-1.2-1.5-1.7
			c-0.6-0.6-1.5,0.2-0.9,0.8c3,3.4,5.2,7.6,6.4,12.1c0.2,1.1,0.5,2.2,0.7,3.4C2496,175.6,2492.3,176.1,2488.5,176.2z"/>
	</g>
	<g>
		<path class="st4" d="M2576.1,146.9c-2.2-0.6-4.6-0.8-6.9-0.7c-0.8,0-1.3,0.6-1.2,1.4c0,0.1,0,0.2,0,0.3c0,0,0,0,0,0.1
			c0,0,0,0,0,0.1c0,0.2,0,0.3,0,0.5c0,0.4,0,0.7-0.1,1.1c0,0.3-0.1,0.7-0.2,1.1l0,0l0,0c0,0.1-0.1,0.2-0.1,0.3
			c-0.1,0.2-0.1,0.4-0.2,0.6c-0.1,0.3-0.2,0.7-0.3,1c-0.1,0.2-0.2,0.3-0.2,0.5c0,0.1-0.1,0.2-0.1,0.2c0,0-0.1,0.2-0.1,0.2
			c-0.2,0.3-0.3,0.7-0.6,0.9c-0.1,0.2-0.2,0.2-0.2,0.3l-0.2,0.2l-0.2,0.2h-0.1c0,0,0,0-0.1,0c0,0-0.1,0-0.1-0.1
			c-0.1,0-0.1-0.1-0.1-0.1c-0.1-0.1-0.2-0.1-0.2-0.2c-0.2-0.2-0.3-0.2-0.5-0.4c-0.2-0.1-0.2-0.2-0.4-0.3c-0.1-0.1-0.2-0.2-0.2-0.2
			l0,0c-0.3-0.2-0.7-0.6-0.9-0.8c-1.1-1.1-2.2-2.3-3.2-3.5c-0.2-0.3-0.5-0.7-0.7-1.1c-0.1-0.1-0.2-0.2-0.2-0.2c0,0-0.1-0.1-0.1-0.2
			c-0.1-0.2-0.2-0.3-0.3-0.5c-0.5-0.7-1-1.6-1.4-2.4c-0.5-0.9-1.7-0.8-2.1,0.2c-0.2,0.6-0.4,1.1-0.7,1.6c-0.1,0.1-0.1,0.2-0.2,0.3
			l-0.2,0.2c-0.2,0.2-0.2,0.5-0.4,0.8c-0.6,1.1-1.2,2-2,2.9c-0.2,0.3-0.2,0.9,0,1.3c-0.1,0.3,0,0.7,0.2,0.9c2.4,2.6,5.1,4.8,8.2,6.6
			c0.3,0.2,0.7,0.4,1.1,0.6c0.2,0.1,0.4,0.2,0.6,0.3c0.2,0.1,0.3,0.2,0.5,0.2l0,0l0,0c-0.2,0.2-0.3,0.5-0.5,0.7
			c-0.9,1.2-2,2.4-2.9,3.7c-1.1,1.4-2,2.9-2.3,4.7v0.1c-0.1,0.2-0.1,0.4-0.1,0.7c0.2,0.7,0.7,1,1.3,0.9c0.7-0.1,1.3-0.2,2-0.3
			c0.2,0,0.3-0.1,0.5-0.2c0.4-0.1,0.7-0.2,1.1-0.2c1.1-0.2,2.4-0.5,3.5-0.8c0.7-0.2,1.3-0.7,1.6-1.4c0.1-0.3,0.2-0.7,0.2-0.9
			c0-0.1,0-0.2,0-0.2c0,0.1,0.1-0.2,0.1-0.2c0.1-0.2,0.2-0.5,0.2-0.7s0.1-0.2,0.2-0.4c0-0.1,0.1-0.1,0.1-0.2c0,0,0,0,0-0.1
			c0.1-0.2,0.2-0.3,0.3-0.5c0.2,0.1,0.2,0.1,0.4,0.2c0,0,0.2,0.1,0.2,0.1c0.1,0.1,0.2,0.1,0.2,0.2c0.2,0.1,0.4,0.2,0.6,0.4
			c0.4,0.2,0.7,0.5,1.1,0.8c0.1,0.1,0.2,0.2,0.2,0.2l0.1,0.1c0.2,0.2,0.3,0.3,0.5,0.5c0.7,0.7,1.3,1.8,2.5,1.8c1.2,0,2-1.1,2.9-1.9
			c0.9-0.9,1.7-1.8,2.5-2.7c0.4-0.5,0.2-1.2-0.3-1.6l-6-4.7c2.1-2.3,3.5-5.1,4-8.1c0.2-0.9,0.2-1.9,0.2-2.9
			C2576.8,147.5,2576.5,147,2576.1,146.9z"/>
		<path class="st5" d="M2577.5,152.5c0.3-1.5,0.5-2.9,0.4-4.4c0-0.4,0-0.8-0.2-1.1c-0.2-0.4-0.7-0.6-1.1-0.7
			c-0.9-0.2-1.8-0.3-2.7-0.5c-2-0.3-4.1-0.5-6.2-0.5c-0.4,0-0.7,0.3-0.7,0.7c0.4,2.7-0.1,5.5-1.4,7.9c-3-2-5.5-4.8-7.1-8
			c-0.5-1-0.9-2-1.2-3c-0.2-0.5-0.8-0.7-1.1-0.2c-2,2.8-3.8,5.9-5.1,9.2c-0.2,0.4-0.3,0.7-0.3,1.2c0,0.6,0.2,1,0.6,1.4
			c0.5,0.6,1.1,1.1,1.6,1.7c1.1,1.1,2.5,2.2,3.8,3.1c1.2,0.9,2.6,1.6,4,2.3c-2.5,3-4.4,6.6-5.4,10.3c-0.2,0.5,0.2,0.9,0.7,0.8
			c2-0.2,4-0.5,6.1-0.9c1-0.2,2-0.4,3-0.7c0.5-0.1,1-0.2,1.3-0.5c0.3-0.3,0.4-0.8,0.5-1.3c0.2-1,0.5-2,0.7-2.9
			c2.2,1.1,4.1,2.8,5.6,4.8c0.2,0.2,0.7,0.2,0.9,0.1c2-2,4-3.9,6-5.9c0.3-0.3,0.2-0.7-0.1-1c-2.2-1.6-4.3-3.4-6.6-5
			C2575.4,157.5,2576.9,155.2,2577.5,152.5z M2572,158.9c-0.2,0.2-0.2,0.4-0.2,0.6c0,0.2,0.2,0.3,0.2,0.4c2.2,1.7,4.4,3.4,6.6,5.1
			c-1.6,1.6-3.3,3.3-4.9,4.8c-1.6-2.1-3.9-3.9-6.3-4.9c-0.3-0.2-0.7,0.1-0.8,0.4c0,0.1,0,0.1,0,0.2c0,0,0,0.1-0.1,0.1
			c-0.2,1.2-0.6,2.4-0.8,3.6c0,0.2-0.1,0.6-0.2,0.7c-0.1,0.1-0.2,0.1-0.2,0.1c-0.1,0-0.2,0.1-0.3,0.1c-0.7,0.2-1.2,0.2-1.9,0.4
			c-2.1,0.4-4.2,0.8-6.3,1.1c1.1-3.5,2.9-6.7,5.3-9.5l0,0c0.2-0.1,0.2-0.2,0.2-0.3c0.1-0.3-0.1-0.7-0.4-0.8c-2.8-1.2-5.3-2.9-7.5-5
			c-0.6-0.5-1.1-1.1-1.6-1.6c-0.2-0.2-0.5-0.5-0.7-0.8c-0.2-0.3-0.1-0.7,0.1-1c0.6-1.5,1.3-2.9,2-4.3c0.7-1.2,1.5-2.5,2.3-3.7
			c1.3,3.4,3.4,6.5,6.1,8.8c0.9,0.7,1.8,1.5,2.8,2c0.1,0.1,0.2,0.1,0.2,0.1c0.2,0.1,0.7,0,0.7-0.2c1.5-2.6,2.1-5.7,1.9-8.6
			c1.5,0.1,2.9,0.2,4.3,0.3c0.8,0.1,1.6,0.2,2.5,0.4c0.4,0.1,0.7,0.2,1.1,0.2c0.1,0,0.2,0,0.2,0.1l0,0l0,0c0.1,0.2,0.1,0.4,0.1,0.6
			c0.2,2.5-0.4,5.2-1.7,7.5C2574.2,156.9,2573.2,158,2572,158.9z"/>
	</g>
	<g>
		<g>
			<path class="st4" d="M2511.3,173.2L2511.3,173.2L2511.3,173.2C2511.3,173,2511.3,173.1,2511.3,173.2z"/>
			<polygon class="st4" points="2503.1,178.7 2503.1,178.7 2503.1,178.7 			"/>
			<path class="st4" d="M2503.9,179.3C2504,179.3,2504,179.3,2503.9,179.3C2504,179.3,2504,179.3,2503.9,179.3L2503.9,179.3z"/>
			<path class="st4" d="M2508.4,168.8C2508.3,168.8,2508.3,168.8,2508.4,168.8C2508.3,168.8,2508.3,168.8,2508.4,168.8
				C2508.3,168.8,2508.3,168.8,2508.4,168.8z"/>
			<path class="st4" d="M2518,167.9c0.4-0.7,0.3-1.5-0.2-2c-0.3-0.3-0.7-0.6-1.1-0.7c-0.4-0.2-0.8-0.3-1.3-0.2c-0.1,0-0.2,0-0.2,0.1
				c-0.1-0.1-0.1-0.2-0.2-0.2c-0.2-0.2-0.2-0.6-0.4-0.8c-0.5-1.2-0.8-2.1-1.1-3.4c-0.2-0.6-0.2-1.2-0.4-1.9
				c-0.1-0.7-0.2-1.3-0.7-1.8c-0.6-0.6-1.4-0.6-2.2-0.7c-0.8-0.1-1.6,0-2.4,0.1c-0.5,0.1-0.9,0.6-0.9,1.1c0,2,0.3,4.2,1,6.1
				c0.1,0.3,0.2,0.6,0.3,0.9c0,0.1,0.1,0.2,0.1,0.3c0,0.1,0,0.1,0,0.1v0.1c0.2,0.5,0.3,0.9,0.4,1.4c0,0.2,0.1,0.4,0.1,0.6
				c0,0.1,0,0.2,0,0.2c0,0.1,0,0.2,0,0.2s0,0.2,0,0.2v0.2c-0.1,0.2-0.1,0.3-0.2,0.5c0,0-0.1,0.2-0.1,0.2c0,0.1-0.1,0.1-0.1,0.2
				c0,0.1-0.1,0.1-0.2,0.2l0,0l0,0l0,0l-0.1,0.1l-0.1,0.1c0,0-0.1,0.1-0.2,0.1c-0.1,0-0.1,0.1-0.2,0.1c-0.1,0-0.1,0.1-0.1,0.1
				c-0.1,0-0.1,0-0.2,0s-0.2,0-0.3,0.1h-0.1c0,0,0,0-0.1,0c-0.2,0-0.5,0-0.7,0c-0.2,0-0.4-0.1-0.7-0.1l0,0l0,0l0,0
				c0-0.2,0-0.4,0-0.6c0-0.6-0.1-1.2-0.1-1.8c-0.1-1-0.2-2-0.2-2.9c-0.2-2.2-0.7-4.5-1.2-6.7c-0.2-0.7-0.7-1-1.3-0.9
				c-1.4,0.2-2.8,0.6-4.1,1.2c-0.2-0.1-0.3-0.2-0.5-0.2c-0.6,0-1.2,0.4-1.2,1.1c0.1,3,0.4,6.1,0.9,9c0.2,1.4,0.4,2.8,0.7,4.2
				c0.2,1.3,0.7,2.5,1.8,3.4c0.8,0.7,1.9,0.9,2.9,0.7c-0.3,0.2-0.7,0.2-1,0.5c-0.6,0.3-1.1,0.8-1.6,1.4c-0.3,0.5-0.3,0.9-0.2,1.4
				c0.2,0.4,0.3,0.7,0.6,1c0.7,1.1,2,1.6,3.4,1.8c1.5,0.2,2.9-0.2,4.3-0.5c2.4-0.4,5-0.6,7-2c2.3-1.6,2.7-4.8,2-7.3
				c-0.2-0.7-0.5-1.6-0.8-2.3c-0.2-0.3-0.3-0.7-0.5-1c-0.1-0.1-0.1-0.2-0.2-0.2c0.1-0.1,0.2-0.1,0.2-0.2
				C2517.2,168.4,2517.7,168.3,2518,167.9z M2511.3,172.9c0,0.1,0,0.2,0,0.2v0.1v0.1l0,0l0,0l0,0c0,0.1,0,0.1-0.1,0.2
				c0,0.1-0.1,0.2-0.1,0.2l0,0c-0.1,0.1-0.2,0.2-0.2,0.3l-0.1,0.1l0,0c-0.1,0.1-0.2,0.2-0.2,0.2s-0.1,0.1-0.2,0.2l0,0
				c-0.1,0-0.1,0.1-0.2,0.1c-0.1,0.1-0.2,0.1-0.2,0.2c-0.2,0.1-0.4,0.2-0.6,0.2c-0.1,0-0.2,0.1-0.3,0.1c-0.2,0.1-0.4,0.1-0.7,0.2
				c-0.7,0.1-1.5,0.2-2.1,0.2c-0.5,0-1,0.1-1.5,0.2c1.1-0.4,2-1.1,2.7-1.9c0.4-0.4,0.9-0.9,1.3-1.3c0.2-0.2,0.4-0.4,0.7-0.6
				c0.1-0.1,0.2-0.2,0.3-0.2l0.1-0.1c0.1,0,0.1-0.1,0.2-0.1c0,0,0.1-0.1,0.2-0.1l0.1,0.1c0.1,0.2,0.2,0.2,0.3,0.4l0.1,0.1l0.1,0.1
				c0.1,0.1,0.2,0.2,0.2,0.4c0,0,0.1,0.1,0.1,0.2v0.1C2511.1,172.6,2511.1,172.7,2511.3,172.9
				C2511.3,172.7,2511.3,172.8,2511.3,172.9z"/>
		</g>
		<path class="st5" d="M2517.9,164.9c-0.3-0.5-0.7-1.2-1.3-1.1c-0.3,0.1-0.6,0.2-0.9,0.3c-0.1,0.1-0.2,0.1-0.2,0.2
			c-0.5-2.6-1.1-5.2-1.7-7.9c0-0.2-0.1-0.2-0.2-0.3c-0.1-0.2-0.3-0.5-0.7-0.4c-2,0.5-4.2,0.3-6.1-0.6c-0.5-0.2-0.8,0.3-0.8,0.7
			c0.3,4.2,1.2,8.2,2.7,12.1c-0.3,0.2-0.7,0.4-1,0.5c-0.2,0.1-0.7,0.2-0.8,0c-0.2-0.4-0.2-0.9-0.2-1.3c-0.1-0.6-0.2-1.1-0.3-1.6
			c-0.4-2.1-0.7-4.3-1.1-6.5c-0.2-1.2-0.3-2.5-0.6-3.7c-0.1-0.5-0.7-0.6-1-0.3c-1.9,1.3-4.2,2-6.4,2c-0.2,0-0.4,0.1-0.6,0.2
			c-0.2,0.1-0.5,0.2-0.5,0.6c0.2,4.6,0.7,9.2,1.6,13.7c0.2,1,0.4,2,0.8,2.9c0.4,0.9,1.2,1.5,2.1,1.7c-0.2,0.2-0.4,0.4-0.6,0.7
			c-0.7,1-0.8,2.2-0.3,3.2c0,0,0,0.1,0.1,0.1c0,0.2,0.1,0.2,0.2,0.3c1.1,1.1,2.4,2,3.7,2.9c0.4,0.2,0.9,0,1-0.4
			c1.1-0.9,2.8-0.7,4.2-0.8c1.9-0.1,3.8-0.5,5.5-1.2c1.5-0.6,3-1.4,4-2.7c1.1-1.4,1.2-3.2,1.1-4.8c-0.2-1.6-0.8-2.9-1.7-4.2
			c0.3-0.1,0.6-0.2,0.9-0.2c0.3-0.1,0.6-0.4,0.5-0.7C2519,167,2518.5,165.9,2517.9,164.9z M2518.3,173.2c0.2,1.5,0.2,3-0.7,4.3
			c-0.9,1.1-2.4,1.9-3.7,2.4c-1.6,0.7-3.4,1-5.1,1.1c-1.6,0.1-3.4,0-4.8,1.1c-1-0.7-2-1.5-2.9-2.2c0-0.1,0-0.1-0.1-0.2
			c-0.4-0.8-0.1-1.6,0.5-2.3c0.3-0.4,0.7-0.7,1.1-0.9c1-0.1,2-0.2,2.9-0.7c2-0.2,4.1-0.2,5.3-1.8c0.7-0.9,0.8-2.3,0-3.2
			c-0.2-0.3-0.7-0.2-1,0.1c-1.1,1.6-2.7,3-4.6,3.8c-0.9,0.1-1.8,0.2-2.7,0.5c-0.2,0.1-0.2,0.1-0.3,0.2c-0.2,0-0.5,0-0.7,0
			c-0.8-0.1-1.5-0.4-1.9-1.1c-0.4-0.8-0.6-1.7-0.7-2.6c-0.4-2-0.8-4.2-1.1-6.3c-0.3-2.3-0.5-4.6-0.6-6.8c2.2-0.1,4.3-0.7,6.1-1.8
			c0.3,2.1,0.7,4.2,1,6.3c0.2,1.2,0.4,2.5,0.7,3.7c0.1,0.6,0.2,1.1,0.3,1.8c0.1,0.5,0.2,1.1,0.7,1.3c0.5,0.3,1.1,0.2,1.7,0.2
			c0.7-0.2,1.2-0.5,1.7-0.9c0.1-0.1,0.2-0.2,0.2-0.3c0.2-0.2,0.2-0.4,0.1-0.7c-1.4-3.6-2.3-7.3-2.6-11.1c1.6,0.6,3.5,0.7,5.2,0.4
			c0.7,2.6,1.2,5.3,1.7,8c0.1,0.2,0.2,0.4,0.3,0.4c0.2,0.2,0.4,0.2,0.7,0.2c0.2-0.1,0.5-0.2,0.7-0.3c0.2-0.1,0.2-0.2,0.4-0.2
			c0.1,0.2,0.2,0.3,0.3,0.5c0.2,0.3,0.3,0.6,0.5,0.9c0.2,0.4,0.4,0.9,0.5,1.3c-0.3,0.1-0.7,0.2-1.1,0.3c-0.5,0-0.9,0.6-0.5,1
			C2517.3,170.3,2518,171.7,2518.3,173.2z M2508.7,174.1c0.6-0.5,1.1-1,1.6-1.6c-0.1,0.4-0.3,0.8-0.7,1.1
			C2509.4,173.8,2509,173.9,2508.7,174.1z"/>
	</g>
	<g>
		<g>
			<path class="st4" d="M2539.5,156.1c-0.9-2.4-1.8-5.6-4.7-6.3c-1.2-0.3-2.5-0.2-3.6,0.2c-1.1,0.5-2,1.4-2.5,2.5
				c-0.5,1.1-0.6,2.5-0.6,3.8c0,0.7,0,1.2-0.1,1.9c0,0.2,0,0.3-0.1,0.4c0,0,0,0,0,0.1c0,0,0,0,0,0.1c0,0,0,0-0.1,0
				c0,0-0.2-0.1-0.2-0.1c-0.1-0.1-0.2-0.1-0.2-0.2c-0.2-0.2-0.4-0.2-0.6-0.4c-0.2-0.1-0.3-0.2-0.5-0.4l0,0c0,0,0,0-0.1,0
				c-0.1-0.1-0.2-0.2-0.2-0.2c-0.3-0.3-0.6-0.7-0.8-1l-0.1-0.1l0,0c-0.1-0.1-0.1-0.2-0.2-0.2c-0.1-0.2-0.2-0.4-0.3-0.6
				c-0.3-0.6-0.7-1.1-1.3-1.4c-0.5-0.2-1-0.2-1.6-0.2l-1.7,0.1c-1.2,0.1-2.5,0.1-3.7,0.2c-0.2-0.2-0.4-0.3-0.7-0.3
				c-0.6,0-1.2,0.4-1.2,1.1c0.1,1.6,0.5,3.3,1.5,4.8c0.2,0.3,0.5,0.7,0.7,1.1c0,0,0.2,0.2,0.1,0.1c0,0.1,0.1,0.1,0.1,0.2
				c0.1,0.1,0.1,0.2,0.2,0.2l0.1,0.2c0,0.1,0,0.2,0.1,0.3v0.2c0,0.2,0,0.3,0,0.6c0,0.4,0,0.8,0,1.2c0.1,3.4,0.4,6.8,1.1,10.1
				c0.3,1.9,0.7,3.7,1.3,5.5c0.2,0.6,0.7,1.1,1.3,0.9c2.1-0.7,4.1-1.8,5.7-3.4c0.4-0.4,0.6-1.1,0.1-1.6c-0.3-0.3-0.7-0.7-1-1
				c-0.2-0.2-0.2-0.3-0.4-0.6c0-0.1-0.1-0.1-0.1-0.2l0,0c-0.1-0.1-0.1-0.2-0.2-0.2c-0.1-0.1-0.2-0.2-0.2-0.3c-0.2-1.1-0.5-2-0.6-3.1
				c0-0.2,0-0.2,0-0.4v-0.1v-0.1c0-0.7,0.1-1.2,0-1.9c0.1,0.1,0.2,0.1,0.2,0.2c0.2,0.2,0.4,0.2,0.6,0.4c0,0,0.1,0,0.1,0.1l0.1,0.1
				c0.1,0.1,0.2,0.2,0.3,0.3c0.3,0.3,0.7,0.7,1,1.1l0,0c0,0.1,0.1,0.1,0.1,0.2c0.1,0.1,0.2,0.2,0.2,0.3c0.2,0.2,0.2,0.5,0.4,0.7
				c0.1,0.2,0.2,0.5,0.3,0.8c0,0.1,0.1,0.2,0.1,0.2c0.1,0.2,0.1,0.2,0.1,0.4c0.1,0.2,0.2,0.6,0.2,0.8c0,0.2,0,0.3,0.1,0.4v0.1
				c0,0,0,0.1,0,0.2c0,0.4,0.2,0.8,0.5,1.1c0.3,0.2,0.8,0.2,1.1,0.1c0.9-0.5,1.7-1,2.6-1.5c0.4-0.2,0.7-0.7,0.6-1.2
				c-0.2-0.8-0.4-1.7-0.6-2.6c-0.1-0.4-0.2-0.9-0.2-1.3c0-0.2-0.1-0.4-0.1-0.7c0-0.1,0-0.2,0-0.3l0,0l0,0l0,0v-0.1v-0.1
				c0-0.4,0-0.9,0-1.3c0-0.2,0-0.4,0.1-0.6c0-0.1,0-0.2,0.1-0.2c0-0.1,0-0.1,0-0.2c0.1-0.4,0.2-0.8,0.3-1.1c0-0.1,0.1-0.2,0.2-0.3
				c0,0,0,0,0-0.1v-0.1c0.1-0.1,0.1-0.2,0.2-0.3c0.2,0.3,0.4,0.7,0.6,1c0.5,1,0.9,1.9,1.3,2.9v0.1v0.1c0.1,0.2,0.1,0.2,0.2,0.4
				c0.1,0.2,0.2,0.5,0.2,0.8c0.2,0.5,0.2,1.1,0.3,1.6c0.1,0.5,0.2,1.1,0.2,1.6c0.1,0.5,0.1,1.1,0.2,1.6c0.2,0.7,0.7,1.3,1.4,1.6
				c0.5,0.2,1.1,0.3,1.6,0.5c1.3,0.2,2.6,0.5,3.9,0.6c0.8,0.1,1.3-0.7,1.2-1.4C2543.1,167.8,2541.6,161.8,2539.5,156.1z"/>
			<path class="st4" d="M2531.9,167.1C2531.9,167,2531.9,167,2531.9,167.1C2531.8,167,2531.8,167,2531.9,167.1
				C2531.9,167,2531.9,167.1,2531.9,167.1z"/>
		</g>
		<path class="st5" d="M2540.9,156.3c-0.7-1.6-1.3-3.3-2.1-4.9c-0.1-0.1-0.1-0.2-0.2-0.2c0-0.2-0.2-0.4-0.4-0.5
			c-1.2-0.6-2.5-1.1-3.7-1.6c-0.3-0.2-0.6-0.2-0.9-0.4c-0.2-0.2-0.6-0.2-0.9-0.2c-0.3,0-0.6,0.2-0.9,0.4c-0.2,0.2-0.6,0.3-0.8,0.5
			c-1.1,0.7-2.1,1.5-3.2,2.3c-0.2,0.2-0.4,0.3-0.6,0.6c-0.2,0.2-0.2,0.6-0.2,0.9c0.1,0.7,0.2,1.4,0.2,2c0.1,0.7,0.2,1.5,0.2,2.2
			c-0.9-1.2-1.8-2.5-2.8-3.7c-0.3-0.4-0.8-0.7-1.4-0.7c-0.6,0-1.2,0.1-1.8,0.1c-1.2,0.1-2.5,0.1-3.7,0.2c-1.4,0.1-2.8,0.2-4.2,0.2
			c-0.3,0-0.7,0.3-0.7,0.7c0.4,1.6,0.9,3.1,1.4,4.6c0.2,0.4,0.2,0.7,0.4,1.1c0.2,0.3,0.2,0.7,0.5,1.1s0.6,0.5,0.9,0.6
			c-0.2,5.2,0.4,10.5,2,15.5c0.2,0.7,0.4,1.3,0.7,2c0.2,0.6,0.4,1.2,0.7,1.8c0.2,0.3,0.6,0.5,0.9,0.4c0.3-0.1,0.7-0.3,1-0.5
			c0.6-0.3,1.2-0.7,1.8-1.1c1.2-0.7,2.5-1.4,3.7-2.1c0.6-0.3,1.1-0.7,1-1.5c-0.1-0.7-0.7-1.1-1-1.6c-1.3-2-2.1-4.3-2.3-6.8
			c0.2,0.2,0.2,0.4,0.4,0.6c0.4,0.7,0.8,1.6,1.2,2.4c0.7,1.6,1.2,3.2,1.7,4.9c0.1,0.4,0.4,0.5,0.7,0.5c0.2,0.1,0.4,0.1,0.6-0.2
			c1.2-1.1,2.6-2.1,4.3-2.8c0,0,0.1,0,0.1-0.1c0.2-0.1,0.5-0.4,0.4-0.7c-0.8-2.8-1.1-5.7-0.8-8.4c1.2,3,1.6,6.3,1.1,9.6
			c-0.1,0.3,0.2,0.7,0.6,0.7c0.1,0,0.2,0,0.2,0c0.1,0.1,0.2,0.1,0.2,0.1c1.7,0.4,3.4,0.7,5.2,1.1c0.8,0.2,1.7,0.4,2.5,0.6
			c0.5,0.1,1.1-0.1,1.3-0.6c0.2-0.1,0.2-0.2,0.2-0.4C2544.4,168.6,2543.1,162.3,2540.9,156.3z M2542.3,174.5
			c-0.7-0.2-1.4-0.3-2.1-0.5c-1.4-0.3-2.8-0.7-4.3-0.9h-0.1c0.5-3.9-0.3-8-2.2-11.5c-0.3-0.6-1.1-0.3-1.1,0.2
			c-0.7,3.4-0.6,7,0.4,10.3c-1.3,0.6-2.5,1.4-3.7,2.4c-0.4-1.6-1-3.2-1.7-4.8c-0.4-0.8-0.7-1.6-1.2-2.5c-0.4-0.7-1-1.3-1.9-1.4
			c-0.3,0-0.7,0.2-0.7,0.6c0,2.4,0.5,4.7,1.5,6.8c0.2,0.5,0.6,1.1,0.8,1.6c0.2,0.2,0.3,0.5,0.5,0.7c0.2,0.2,0.4,0.4,0.5,0.7l0,0
			c-0.1,0.1-0.2,0.1-0.2,0.2c-0.2,0.2-0.6,0.3-0.9,0.5c-0.6,0.3-1.1,0.7-1.7,1c-0.7,0.3-1.3,0.7-2,1.1c-0.3,0.2-0.6,0.3-0.9,0.5
			c-0.2,0.1-0.3,0.2-0.5,0.2c0,0-0.1,0-0.1,0.1c-0.1-0.2-0.1-0.2-0.2-0.4c-0.2-0.3-0.2-0.7-0.3-0.9c-0.2-0.6-0.4-1.1-0.7-1.8
			c-0.4-1.2-0.7-2.5-1-3.7c-0.6-2.5-0.9-5-1-7.5c-0.1-1.5,0-2.9,0.1-4.3c0-0.2,0-0.2-0.1-0.4c-0.1-0.5-0.6-0.8-1-0.4l-0.1-0.1
			c-0.2-0.2-0.2-0.6-0.3-0.8c-0.2-0.6-0.4-1.1-0.6-1.7c-0.3-1-0.7-2-0.9-2.9c2-0.1,4.1-0.2,6.1-0.2c0.6,0,1.1-0.1,1.7-0.1
			c0.3,0,0.6,0,0.9,0c0.2,0,0.3,0,0.4,0c0.2,0.1,0.3,0.4,0.5,0.6c0.2,0.2,0.3,0.4,0.5,0.7c0.3,0.4,0.7,0.9,1,1.3c0.7,1,1.5,2,2.1,3
			c0.2,0.2,0.5,0.4,0.7,0.3c0.3-0.1,0.5-0.4,0.5-0.7c-0.2-1.2-0.2-2.5-0.4-3.7c-0.1-0.7-0.2-1.2-0.2-1.9c0-0.3-0.1-0.6-0.1-0.9
			c0-0.2-0.1-0.2,0.1-0.4c0.9-0.7,1.8-1.5,2.8-2c0.5-0.3,1-0.7,1.5-0.9c0,0,0.1-0.1,0.2-0.1c0.1,0.1,0.2,0.1,0.3,0.2
			c0.2,0.2,0.6,0.2,0.8,0.4c1.2,0.6,2.4,1.1,3.6,1.6c0,0.1,0,0.1,0.1,0.2c2.7,5.6,4.5,11.6,5.4,17.8c0.2,1.6,0.4,3.3,0.5,4.9
			l-0.1,0.1c-0.1,0-0.1,0-0.2,0C2543,174.7,2542.6,174.6,2542.3,174.5z"/>
	</g>
</g>
<g>
	<path class="st1" d="M2820,219.3h27.7c2.1,0,3.9,1,5.2,2.5c0.8,1.1,1.3,2.5,1.3,3.9v7.4c0,1.3-0.4,2.5-1.1,3.6
		c-1.1,1.7-3.1,2.9-5.4,2.9H2820c-1.6,0-3.1-0.6-4.3-1.6c-1.3-1.2-2.2-2.9-2.2-4.8v-7.4c0-1.7,0.7-3.4,1.8-4.5
		C2816.6,220,2818.2,219.3,2820,219.3"/>
	<path class="st1" d="M2773.6,219.3h27.7c2.1,0,3.9,1,5.2,2.5c0.8,1.1,1.3,2.5,1.3,3.9v7.4c0,1.3-0.4,2.5-1.1,3.6
		c-1.1,1.7-3.1,2.9-5.3,2.9h-27.7c-1.6,0-3.1-0.6-4.3-1.6c-1.3-1.2-2.2-2.9-2.2-4.8v-7.4c0-1.7,0.7-3.4,1.8-4.5
		C2770.1,220,2771.8,219.3,2773.6,219.3"/>
	<path class="st1" d="M2727.2,219.3h27.7c2.1,0,3.9,1,5.2,2.5c0.8,1.1,1.3,2.5,1.3,3.9v7.4c0,1.3-0.4,2.5-1.1,3.6
		c-1.1,1.7-3.1,2.9-5.3,2.9h-27.7c-1.6,0-3.1-0.6-4.3-1.6c-1.3-1.2-2.2-2.9-2.2-4.8v-7.4c0-1.7,0.7-3.4,1.8-4.5
		C2723.8,220,2725.4,219.3,2727.2,219.3"/>
	<path class="st1" d="M2753.3,242.6h27.7c2.1,0,3.9,1,5.2,2.5c0.8,1.1,1.3,2.5,1.3,3.9v7.4c0,1.3-0.4,2.5-1.1,3.6
		c-1.1,1.7-3.1,2.9-5.3,2.9h-27.7c-1.6,0-3.1-0.6-4.3-1.6c-1.3-1.1-2.2-2.9-2.2-4.8V249c0-1.7,0.7-3.4,1.8-4.5
		C2749.9,243.3,2751.5,242.6,2753.3,242.6"/>
	<path class="st1" d="M2706.9,242.6h27.7c2.1,0,3.9,1,5.2,2.5c0.8,1.1,1.3,2.5,1.3,3.9v7.4c0,1.3-0.4,2.5-1.1,3.6
		c-1.1,1.7-3.1,2.9-5.3,2.9H2707c-1.6,0-3.1-0.6-4.3-1.6c-1.4-1.1-2.2-2.9-2.2-4.8V249c0-1.7,0.7-3.4,1.8-4.5
		C2703.4,243.3,2705.1,242.6,2706.9,242.6"/>
	<path class="st1" d="M2801.2,194.7h27.7c2.1,0,3.9,1,5.2,2.5c0.8,1.1,1.3,2.5,1.3,3.9v7.4c0,1.3-0.4,2.6-1.1,3.6
		c-1.1,1.7-3.1,2.9-5.3,2.9h-27.7c-1.6,0-3.1-0.7-4.3-1.6c-1.3-1.1-2.2-2.9-2.2-4.8v-7.4c0-1.7,0.7-3.4,1.8-4.5
		C2797.7,195.4,2799.4,194.7,2801.2,194.7"/>
</g>
<g>
	<path class="st1" d="M3153.7,123.5l27.7,0.6c2.1,0.1,4-0.9,5.2-2.5c0.8-1.1,1.4-2.4,1.4-3.9l0.2-7.4c0-1.3-0.3-2.6-1.1-3.6
		c-1.1-1.7-3-2.9-5.3-2.9l-27.7-0.6c-1.6,0-3.1,0.6-4.3,1.5c-1.4,1.1-2.3,2.9-2.3,4.8l-0.2,7.4c0,1.7,0.7,3.4,1.7,4.5
		C3150.2,122.7,3151.8,123.5,3153.7,123.5"/>
	<path class="st1" d="M3107.2,122.6l27.7,0.6c2.1,0.1,4-0.9,5.2-2.5c0.8-1.1,1.4-2.4,1.4-3.9l0.2-7.4c0-1.3-0.3-2.6-1.1-3.6
		c-1.1-1.7-3-2.9-5.3-2.9l-27.7-0.6c-1.6,0-3.1,0.6-4.3,1.5c-1.4,1.1-2.3,2.9-2.3,4.8l-0.2,7.4c0,1.7,0.7,3.4,1.7,4.5
		C3103.8,121.7,3105.4,122.5,3107.2,122.6"/>
	<path class="st1" d="M3060.9,121.6l27.7,0.6c2.1,0.1,4-0.9,5.2-2.5c0.8-1.1,1.4-2.4,1.4-3.9l0.2-7.4c0-1.3-0.3-2.6-1.1-3.6
		c-1.1-1.7-3-2.9-5.3-2.9l-27.7-0.6c-1.6,0-3.1,0.6-4.3,1.5c-1.4,1.1-2.3,2.9-2.3,4.8l-0.2,7.4c0,1.7,0.7,3.4,1.7,4.5
		C3057.4,120.8,3059,121.5,3060.9,121.6"/>
	<path class="st1" d="M3066.4,63.7l27.7,0.6c2.1,0.1,4-0.9,5.2-2.5c0.8-1.1,1.4-2.5,1.4-3.9l0.2-7.4c0-1.3-0.3-2.6-1.1-3.6
		c-1.1-1.7-3-2.9-5.3-2.9l-27.7-0.6c-1.6,0-3.1,0.6-4.3,1.6c-1.4,1.1-2.3,2.9-2.3,4.8l-0.2,7.4c0,1.7,0.7,3.4,1.7,4.5
		C3063,62.8,3064.5,63.6,3066.4,63.7"/>
	<path class="st1" d="M3086.4,146.7l27.7,0.6c2.1,0.1,4-0.9,5.2-2.5c0.8-1.1,1.4-2.4,1.4-3.9l0.2-7.4c0-1.3-0.3-2.6-1.1-3.6
		c-1.1-1.7-3-2.9-5.3-2.9l-27.7-0.6c-1.6,0-3.1,0.6-4.3,1.6c-1.4,1.1-2.3,2.9-2.3,4.8l-0.2,7.4c0,1.7,0.7,3.4,1.7,4.5
		C3083,145.9,3084.6,146.7,3086.4,146.7"/>
	<path class="st1" d="M3041,97.9l27.7,0.6c2.1,0.1,4-0.9,5.2-2.5c0.8-1.1,1.4-2.4,1.4-3.9l0.2-7.4c0-1.3-0.3-2.6-1.1-3.6
		c-1.1-1.7-3-2.9-5.3-2.9l-27.7-0.6c-1.6,0-3.1,0.6-4.3,1.6c-1.4,1.1-2.3,2.9-2.3,4.8l-0.2,7.4c0,1.7,0.7,3.4,1.7,4.5
		C3037.6,97.1,3039.2,97.9,3041,97.9"/>
	<path class="st1" d="M3134.3,147.8l27.7,0.6c2.1,0.1,4-0.9,5.2-2.5c0.8-1.1,1.4-2.4,1.4-3.9l0.2-7.4c0-1.3-0.3-2.6-1.1-3.6
		c-1.1-1.7-3-2.9-5.3-2.9l-27.7-0.6c-1.6,0-3.1,0.6-4.3,1.6c-1.4,1.1-2.3,2.9-2.3,4.8l-0.2,7.4c0,1.7,0.7,3.4,1.7,4.5
		C3130.8,146.9,3132.5,147.7,3134.3,147.8"/>
</g>
<g>
	<path class="st1" d="M3512.1,260h27.7c2.1,0,3.9,1,5.2,2.5c0.8,1.1,1.3,2.5,1.3,3.9v7.4c0,1.3-0.4,2.5-1.1,3.6
		c-1.1,1.7-3.1,2.9-5.4,2.9h-27.7c-1.6,0-3.1-0.6-4.3-1.6c-1.3-1.1-2.2-2.9-2.2-4.8v-7.4c0-1.7,0.7-3.4,1.8-4.5
		C3508.6,260.8,3510.3,260,3512.1,260"/>
	<path class="st1" d="M3465.7,260h27.7c2.1,0,3.9,1,5.2,2.5c0.8,1.1,1.3,2.5,1.3,3.9v7.4c0,1.3-0.4,2.5-1.1,3.6
		c-1.1,1.7-3.1,2.9-5.3,2.9h-27.7c-1.6,0-3.1-0.6-4.3-1.6c-1.3-1.1-2.2-2.9-2.2-4.8v-7.4c0-1.7,0.7-3.4,1.8-4.5
		C3462.2,260.8,3463.8,260,3465.7,260"/>
	<path class="st1" d="M3419.3,260h27.7c2.1,0,3.9,1,5.2,2.5c0.8,1.1,1.3,2.5,1.3,3.9v7.4c0,1.3-0.4,2.5-1.1,3.6
		c-1.1,1.7-3.1,2.9-5.3,2.9h-27.7c-1.6,0-3.1-0.6-4.3-1.6c-1.3-1.1-2.2-2.9-2.2-4.8v-7.4c0-1.7,0.7-3.4,1.8-4.5
		C3415.8,260.8,3417.5,260,3419.3,260"/>
	<path class="st1" d="M3445.4,283.2h27.7c2.1,0,3.9,1,5.2,2.5c0.8,1.1,1.3,2.5,1.3,3.9v7.4c0,1.3-0.4,2.5-1.1,3.6
		c-1.1,1.7-3.1,2.9-5.3,2.9h-27.7c-1.6,0-3.1-0.6-4.3-1.6c-1.4-1.1-2.2-2.9-2.2-4.8v-7.4c0-1.7,0.7-3.4,1.8-4.5
		C3441.9,284,3443.6,283.2,3445.4,283.2"/>
	<path class="st1" d="M3398.9,283.2h27.7c2.1,0,3.9,1,5.2,2.5c0.8,1.1,1.3,2.5,1.3,3.9v7.4c0,1.3-0.4,2.5-1.1,3.6
		c-1.1,1.7-3.1,2.9-5.3,2.9h-27.7c-1.6,0-3.1-0.6-4.3-1.6c-1.3-1.1-2.2-2.9-2.2-4.8v-7.4c0-1.7,0.7-3.4,1.8-4.5
		C3395.5,284,3397.1,283.2,3398.9,283.2"/>
	<path class="st1" d="M3493.2,235.4h27.7c2.1,0,3.9,1,5.2,2.5c0.8,1.1,1.3,2.5,1.3,3.9v7.4c0,1.3-0.4,2.5-1.1,3.6
		c-1.1,1.7-3.1,2.9-5.3,2.9h-27.7c-1.6,0-3.1-0.7-4.3-1.6c-1.3-1.1-2.2-2.9-2.2-4.8v-7.4c0-1.7,0.7-3.4,1.8-4.5
		C3489.8,236.1,3491.4,235.4,3493.2,235.4"/>
</g>
<g>
	<path class="st1" d="M3808.1,92.2h27.7c2.1,0,3.9-1,5.2-2.5c0.8-1.1,1.3-2.5,1.3-3.9v-7.4c0-1.3-0.4-2.5-1.1-3.6
		c-1.1-1.7-3.1-2.9-5.3-2.9h-27.7c-1.6,0-3.1,0.6-4.3,1.6c-1.3,1.1-2.2,2.9-2.2,4.8v7.4c0,1.7,0.7,3.4,1.8,4.5
		C3804.7,91.4,3806.3,92.2,3808.1,92.2"/>
	<path class="st1" d="M3761.8,92.2h27.7c2.1,0,3.9-1,5.2-2.5c0.8-1.1,1.3-2.5,1.3-3.9v-7.4c0-1.3-0.4-2.5-1.1-3.6
		c-1.1-1.7-3.1-2.9-5.3-2.9h-27.8c-1.6,0-3.1,0.6-4.3,1.6c-1.3,1.1-2.2,2.9-2.2,4.8v7.4c0,1.7,0.7,3.4,1.8,4.5
		C3758.2,91.4,3760,92.2,3761.8,92.2"/>
	<path class="st1" d="M3741.5,69h27.7c2.1,0,3.9-1,5.2-2.5c0.8-1.1,1.3-2.5,1.3-3.9v-7.4c0-1.3-0.4-2.6-1.1-3.6
		c-1.1-1.7-3.1-2.9-5.3-2.9h-27.7c-1.6,0-3.1,0.6-4.3,1.6c-1.3,1.2-2.2,2.9-2.2,4.8v7.4c0,1.7,0.7,3.4,1.8,4.5
		C3738,68.3,3739.6,69,3741.5,69"/>
	<path class="st1" d="M3789.3,69h27.7c2.1,0,3.9-1,5.2-2.5c0.8-1.1,1.3-2.5,1.3-3.9v-7.4c0-1.3-0.4-2.6-1.1-3.6
		c-1.1-1.7-3.1-2.9-5.3-2.9h-27.7c-1.6,0-3.1,0.6-4.3,1.6c-1.3,1.2-2.2,2.9-2.2,4.8v7.4c0,1.7,0.7,3.4,1.8,4.5
		C3785.9,68.3,3787.5,69,3789.3,69"/>
	<path class="st1" d="M3695,116.8h27.7c2.1,0,3.9-1,5.2-2.5c0.8-1.1,1.3-2.5,1.3-3.9V103c0-1.3-0.4-2.5-1.1-3.6
		c-1.1-1.7-3.1-2.9-5.3-2.9H3695c-1.6,0-3.1,0.6-4.3,1.6c-1.3,1.2-2.2,2.9-2.2,4.8v7.4c0,1.7,0.7,3.4,1.8,4.5
		C3691.6,116.1,3693.2,116.8,3695,116.8"/>
	<path class="st1" d="M3741.5,116.8h27.7c2.1,0,3.9-1,5.2-2.5c0.8-1.1,1.3-2.5,1.3-3.9V103c0-1.3-0.4-2.5-1.1-3.6
		c-1.1-1.7-3.1-2.9-5.3-2.9h-27.7c-1.6,0-3.1,0.6-4.3,1.6c-1.3,1.2-2.2,2.9-2.2,4.8v7.4c0,1.7,0.7,3.4,1.8,4.5
		C3738,116.1,3739.6,116.8,3741.5,116.8"/>
	<path class="st1" d="M3789.3,116.8h27.7c2.1,0,3.9-1,5.2-2.5c0.8-1.1,1.3-2.5,1.3-3.9V103c0-1.3-0.4-2.5-1.1-3.6
		c-1.1-1.7-3.1-2.9-5.3-2.9h-27.7c-1.6,0-3.1,0.6-4.3,1.6c-1.3,1.2-2.2,2.9-2.2,4.8v7.4c0,1.7,0.7,3.4,1.8,4.5
		C3785.9,116.1,3787.5,116.8,3789.3,116.8"/>
</g>
<g>
	<path class="st1" d="M4066.6,167.7h-27.7c-2.1,0-3.9,1-5.2,2.5c-0.8,1.1-1.3,2.5-1.3,3.9v7.4c0,1.3,0.4,2.5,1.1,3.6
		c1.1,1.7,3.1,2.9,5.3,2.9h27.7c1.6,0,3.1-0.6,4.3-1.6c1.3-1.1,2.2-2.9,2.2-4.8v-7.4c0-1.7-0.7-3.4-1.8-4.5
		C4070.1,168.4,4068.5,167.7,4066.6,167.7"/>
	<path class="st1" d="M4113,167.7h-27.7c-2.1,0-3.9,1-5.2,2.5c-0.8,1.1-1.3,2.5-1.3,3.9v7.4c0,1.3,0.4,2.5,1.1,3.6
		c1.1,1.7,3.1,2.9,5.3,2.9h27.7c1.6,0,3.1-0.6,4.3-1.6c1.3-1.1,2.2-2.9,2.2-4.8v-7.4c0-1.7-0.7-3.4-1.8-4.5
		C4116.5,168.4,4114.8,167.7,4113,167.7"/>
	<path class="st1" d="M4159.4,167.7h-27.7c-2.1,0-3.9,1-5.2,2.5c-0.8,1.1-1.3,2.5-1.3,3.9v7.4c0,1.3,0.4,2.5,1.1,3.6
		c1.1,1.7,3.1,2.9,5.3,2.9h27.7c1.6,0,3.1-0.6,4.3-1.6c1.3-1.1,2.2-2.9,2.2-4.8v-7.4c0-1.7-0.7-3.4-1.8-4.5
		C4162.9,168.4,4161.3,167.7,4159.4,167.7"/>
	<path class="st1" d="M4133.4,190.9h-27.7c-2.1,0-3.9,1-5.2,2.5c-0.8,1.1-1.3,2.5-1.3,3.9v7.4c0,1.3,0.4,2.5,1.1,3.6
		c1.1,1.7,3.1,2.9,5.3,2.9h27.7c1.6,0,3.1-0.7,4.3-1.6c1.3-1.2,2.2-2.9,2.2-4.8v-7.4c0-1.7-0.7-3.4-1.8-4.5
		C4136.8,191.7,4135.2,190.9,4133.4,190.9"/>
	<path class="st1" d="M4085.4,143h-27.7c-2.1,0-3.9,1-5.2,2.5c-0.8,1.1-1.3,2.5-1.3,3.9v7.4c0,1.3,0.4,2.6,1.1,3.6
		c1.1,1.7,3.1,2.9,5.4,2.9h27.7c1.6,0,3.1-0.7,4.3-1.6c1.3-1.1,2.2-2.9,2.2-4.8v-7.4c0-1.7-0.7-3.4-1.8-4.5
		C4089,143.8,4087.3,143,4085.4,143"/>
</g>
<g>
	<path class="st1" d="M4452,267.4h27.7c2.1,0,3.9,1,5.2,2.5c0.8,1.1,1.3,2.5,1.3,3.9v7.4c0,1.3-0.4,2.5-1.1,3.6
		c-1.1,1.7-3.1,2.9-5.4,2.9H4452c-1.6,0-3.1-0.6-4.3-1.6c-1.3-1.1-2.2-2.9-2.2-4.8v-7.4c0-1.7,0.7-3.4,1.8-4.5
		C4448.6,268.2,4450.2,267.4,4452,267.4"/>
	<path class="st1" d="M4405.7,267.4h27.7c2.1,0,3.9,1,5.2,2.5c0.8,1.1,1.3,2.5,1.3,3.9v7.4c0,1.3-0.4,2.5-1.1,3.6
		c-1.1,1.7-3.1,2.9-5.3,2.9h-27.7c-1.6,0-3.1-0.6-4.3-1.6c-1.3-1.1-2.2-2.9-2.2-4.8v-7.4c0-1.7,0.7-3.4,1.8-4.5
		C4402.1,268.2,4403.8,267.4,4405.7,267.4"/>
	<path class="st1" d="M4359.2,267.4h27.7c2.1,0,3.9,1,5.2,2.5c0.8,1.1,1.3,2.5,1.3,3.9v7.4c0,1.3-0.4,2.5-1.1,3.6
		c-1.1,1.7-3.1,2.9-5.3,2.9h-27.7c-1.6,0-3.1-0.6-4.3-1.6c-1.3-1.1-2.2-2.9-2.2-4.8v-7.4c0-1.7,0.7-3.4,1.8-4.5
		C4355.8,268.2,4357.4,267.4,4359.2,267.4"/>
	<path class="st1" d="M4385.3,290.7h27.7c2.1,0,3.9,1,5.2,2.5c0.8,1.1,1.3,2.5,1.3,3.9v7.4c0,1.3-0.4,2.5-1.1,3.6
		c-1.1,1.7-3.1,2.9-5.3,2.9h-27.7c-1.6,0-3.1-0.6-4.3-1.6c-1.3-1.1-2.2-2.9-2.2-4.8v-7.4c0-1.7,0.7-3.4,1.8-4.5
		C4381.8,291.4,4383.5,290.7,4385.3,290.7"/>
	<path class="st1" d="M4338.9,290.7h27.7c2.1,0,3.9,1,5.2,2.5c0.8,1.1,1.3,2.5,1.3,3.9v7.4c0,1.3-0.4,2.5-1.1,3.6
		c-1.1,1.7-3.1,2.9-5.3,2.9H4339c-1.6,0-3.1-0.6-4.3-1.6c-1.4-1.1-2.2-2.9-2.2-4.8v-7.4c0-1.7,0.7-3.4,1.8-4.5
		C4335.5,291.4,4337.1,290.7,4338.9,290.7"/>
	<path class="st1" d="M4433.2,242.7h27.7c2.1,0,3.9,1,5.2,2.5c0.8,1.1,1.3,2.5,1.3,3.9v7.4c0,1.3-0.4,2.5-1.1,3.6
		c-1.1,1.7-3.1,2.9-5.3,2.9h-27.7c-1.6,0-3.1-0.7-4.3-1.6c-1.3-1.1-2.2-2.9-2.2-4.8v-7.4c0-1.7,0.7-3.4,1.8-4.5
		C4429.7,243.6,4431.4,242.7,4433.2,242.7"/>
</g>
</svg>
