<?xml version="1.0" encoding="UTF-8"?><svg id="a" xmlns="http://www.w3.org/2000/svg" viewBox="0 0 1804.45 1451.32"><defs><style>.b{fill:#c7cad2;}.b,.c,.d,.e{stroke-width:0px;}.c{fill:#efebe8;}.d{fill:#e7e1dd;}.e{fill:#e9e9e9;}</style></defs><path class="d" d="m1703.45,1179.69h0c-68.75,14.51-136.24-29.47-150.75-98.21l-195.68-927.45,248.99-52.54,195.67,927.44c14.52,68.76-29.48,136.25-98.24,150.75Z"/><path class="c" d="m1581,1171.42h0c-83.73,17.67-165.92-35.89-183.59-119.62l-201.34-954.21,303.22-63.98,201.32,954.21c17.67,83.74-35.88,165.93-119.62,183.6Z"/><path class="e" d="m1725.17,1175.12l-1289.68,272.11c-101.8,21.48-201.76-43.64-223.23-145.45L0,295.84,1402.14,0c47.39,224.71,82.01,424.57,135.81,680.2,36.21,172.08,60.23,506.45,187.22,494.92Z"/><path class="b" d="m485.85,330.19c-.59-2.83-1.44-5.54-2.52-8.12-1.09-2.59-1.73-4.94-1.91-7.09-.18-2.14.36-4.09,1.64-5.82,1.26-1.75,3.96-3.13,8.13-4.14,2.41-.64,5.08-.55,7.99.31,2.89.86,5.98,2.14,9.24,3.85,1.63.78,3.79,2.19,6.48,4.21,2.7,2.04,5.7,4.32,8.96,6.87,3.25,2.54,6.64,5.23,10.15,8.09,3.51,2.83,6.8,5.53,9.87,8.02,3.09,2.52,5.82,4.72,8.23,6.61,2.39,1.88,4.11,3.14,5.15,3.76-.43-3.71-1.19-7.62-2.34-11.73-1.14-4.12-2.41-8.36-3.79-12.7-1.36-4.35-2.76-8.73-4.12-13.15-1.41-4.42-2.44-8.73-3.15-12.93-.31-1.49-.57-2.88-.74-4.18-.18-1.3-.03-2.48.47-3.58.48-1.08,1.36-2.12,2.62-3.08,1.25-.97,3.05-1.92,5.4-2.83,2.05-.71,4.19-.85,6.47-.42,2.27.44,5.37,1.3,9.27,2.59,2.06,1.12,4.17,3.33,6.32,6.67,2.16,3.35,4.23,7.34,6.21,11.98,1.96,4.64,3.86,9.71,5.65,15.16,1.78,5.45,3.4,10.78,4.86,15.94,1.47,5.18,2.73,9.93,3.84,14.28,1.09,4.34,1.96,7.7,2.67,10.09l16.98,66.22c.93,3.59,1.71,6.91,2.36,9.94.64,3.02.7,5.65.16,7.86-.53,2.23-1.8,4.05-3.77,5.45-1.98,1.4-5.1,2.33-9.34,2.81-7.86.81-13.45.12-16.81-2.05-3.38-2.16-5.54-6.45-6.54-12.84l-13.2-43.18c-.44-1.17-.89-2.91-1.36-5.2-.5-2.29-.99-4.64-1.51-7.07-.5-2.42-1.06-4.64-1.67-6.61-.61-1.97-1.12-3.2-1.59-3.67-.68-.7-2.04-1.53-4.07-2.52-2.02-.97-3.59-1.85-4.64-2.6-1.44-.82-2.82-1.73-4.11-2.72-1.31-.99-2.7-1.96-4.16-2.92-2.37-1.74-4.5-3.36-6.36-4.87-1.87-1.51-3.69-3.02-5.46-4.55-1.79-1.52-3.51-3.02-5.18-4.48-1.68-1.48-3.59-2.96-5.73-4.5-1.3-.98-3.12-2.35-5.48-4.11-2.39-1.75-4.19-3.05-5.47-3.91-.27.48-.17,1.57.29,3.31.46,1.74.86,3.83,1.19,6.29.73,5.19,1.68,10.57,2.86,16.16,1.18,5.58,2.57,11.3,4.15,17.14,2.36,8.52,4.7,17.01,7.03,25.52,2.35,8.5,5.21,16.83,8.55,24.98.78,1.94,1.87,4.39,3.32,7.31,1.42,2.94,2.15,5.73,2.17,8.39.04,2.8-.91,4.77-2.86,5.88-1.94,1.12-4.26,1.73-6.96,1.89-2.69.15-5.29-.07-7.78-.67-2.48-.6-4.18-1.3-5.08-2.1-.89-.79-2.04-3.43-3.45-7.92-1.39-4.47-2.92-10-4.56-16.53-1.66-6.54-3.4-13.63-5.18-21.26-1.79-7.64-3.54-15-5.22-22.1-1.52-6.29-2.89-12.02-4.15-17.16-1.26-5.14-2.39-9.16-3.37-12.05l-5.07-20.23Z"/><path class="b" d="m629.72,413.5c-.36-3.43-.87-7.16-1.55-11.18-.67-4-1.48-8.3-2.45-12.87-.85-4.04-1.79-8.24-2.79-12.6-1.01-4.35-2.09-8.79-3.23-13.34-1.76-6.66-3.45-13.38-5.06-20.12-1.61-6.77-3.14-13.38-4.58-19.81-1.46-6.45-2.82-12.51-4.11-18.21-1.31-5.7-2.43-10.84-3.39-15.43-.74-3.5-1.09-5.85-1.09-7.04.03-1.2.23-1.95.62-2.24.38-.29.75-.51,1.1-.65.32-.14.52-.99.54-2.54.05-.56,0-1.33-.21-2.27-.14-.67-.22-1.21-.2-1.64,0-.42.27-1.04.84-1.86,1.13-1.52,4.52-3.15,10.16-4.89,5.62-1.75,12.09-3.39,19.41-4.94,1.57-.33,3.14-.62,4.72-.89,1.59-.26,3.15-.56,4.72-.89,7.2-1.23,13.87-2.18,20-2.83,6.13-.65,10.5-.83,13.12-.54.93.1,2.07.54,3.4,1.31,1.36.78,2.16,1.79,2.43,3.02.06.27,0,.85-.2,1.74-.91,2.62-3.42,4.69-7.54,6.19-4.14,1.52-8.82,2.82-14.04,3.92-2.44.52-4.8.99-7.07,1.39-2.28.41-4.64.88-7.07,1.39l-6.02,1.27c-2.43.51-4.59,1.03-6.48,1.57-1.89.54-3.39,1.2-4.48,1.99l.5,2.43c.39,1.89,1,4.38,1.87,7.5.83,3.12,1.82,6.47,2.91,10.01,1.24,3.26,2.35,6.54,3.31,9.84.97,3.31,1.87,6.28,2.7,8.91.84,2.62,1.79,5.66,2.87,9.08,1.03.62,3.2.59,6.52-.13,2.25-.46,4.66-1.07,7.25-1.82,2.56-.76,5.24-1.43,8.03-2.03,1.57-.32,3.1-.57,4.61-.75,1.51-.18,2.98-.27,4.44-.32,2.91.1,4.89.56,5.88,1.4.98.85,1.6,1.8,1.83,2.88l.17.79c.31,1.49.16,2.95-.45,4.42-.6,1.45-2.56,2.89-5.91,4.3-2.16.88-4.57,1.77-7.19,2.66-2.63.92-5.23,1.74-7.8,2.49-2.56.77-5.01,1.41-7.36,1.99-2.34.56-4.28.99-5.86,1.33l1.41,6.65c.57,2.7,1.13,5.35,1.68,7.97.57,2.61,1.2,5.25,1.94,7.91.54,2.56,1.1,5.03,1.71,7.42.58,2.41,1.15,4.89,1.7,7.44.53,2.56,1,5.04,1.43,7.48.43,2.45.89,4.94,1.43,7.49l.94,4.43c.32,1.48.74,2.45,1.29,2.88.56.46,1.79.54,3.73.28,4.02-.85,7.74-1.73,11.19-2.68,3.43-.93,6.89-1.77,10.37-2.5,3.49-.74,6.87-1.27,10.17-1.61,3.27-.34,6.76-.41,10.45-.2,4.99.35,7.7,1.53,8.12,3.55.21.95-.12,2-.96,3.16-2.29,3.01-5.95,5.41-11.04,7.18-5.09,1.78-10.22,3.21-15.46,4.3-2.08.45-4.14.85-6.14,1.21-2.03.36-3.81.7-5.39,1.02l-5.46,1.16c-3.3.7-5.91,1.31-7.8,1.86-1.89.54-3.52,1.01-4.88,1.45-1.37.42-2.63.86-3.81,1.33-1.18.45-2.63.87-4.38,1.24-2.79.57-4.76.72-5.9.39-1.16-.32-2.71-.7-4.61-1.13-3.62-.78-6.08-1.89-7.37-3.3-1.3-1.4-2.11-2.79-2.37-4.14-.23-1.06-.3-1.97-.17-2.71.13-.72.23-1.24.36-1.54Z"/><path class="b" d="m694.93,267.51c-.32-.63-.6-1.49-.81-2.57-.49-2.29-.11-4.09,1.16-5.41,1.28-1.33,3.04-2.22,5.29-2.7,2.96-.62,6.36-.56,10.14.18,3.79.75,6.89,2.07,9.28,3.94,2.85,2.23,5.14,4.94,6.9,8.15,1.78,3.22,3.71,6.36,5.8,9.42.73.84,1.81,2.5,3.26,5.02,1.43,2.5,3.16,5.51,5.18,9.02,1.99,3.52,4.18,7.39,6.53,11.6,2.34,4.21,4.7,8.46,7.05,12.74,2.33,4.14,4.75,8.52,7.26,13.12,2.52,4.61,4.77,8.83,6.77,12.7,2,3.87,3.73,7.09,5.19,9.65,1.44,2.59,2.39,4.04,2.84,4.36.16-.88.34-2.39.54-4.54.18-2.15.37-4.68.57-7.62.2-2.91.37-6.16.54-9.71.16-3.54.31-7.16.45-10.84.17-4.39.28-8.73.37-13.06.1-4.29.19-8.22.27-11.74.07-3.53.12-6.49.16-8.91.05-2.39,0-3.92-.16-4.61l-1.62-3.87c-.78-1.94-2.11-5-3.99-9.17-1.88-4.17-4.55-10.12-7.98-17.83-.33-.63-.58-1.21-.78-1.73-.21-.52-.36-1.05-.48-1.61-.69-3.22-.18-5.82,1.5-7.79,1.66-1.97,3.98-3.27,6.95-3.9,2.43-.51,5.17-.52,8.17-.03,3.01.49,5.77,1.52,8.29,3.11,2.11,1.38,4.05,3.03,5.84,4.98,1.77,1.95,3.43,3.99,4.96,6.12,1.55,2.14,2.9,4.29,4.07,6.42,1.18,2.15,2.22,4.03,3.12,5.67.06.27.15.42.24.48.09.05.17.21.23.48,6.82,12.47,13.09,24.76,18.84,36.84,5.72,12.07,11.22,24.6,16.5,37.54.47.46.72.84.79,1.11.02.12.1-1.22.22-4.06.14-2.85.34-6.6.61-11.31.29-4.7.57-10.11.82-16.2.25-6.1.57-12.41.91-18.95.34-6.55.66-13.04.93-19.5.27-6.45.59-12.32.93-17.6.35-5.26.68-9.76.97-13.5.3-3.7.54-6.09.69-7.09.29-1.19.49-2.64.59-4.35.1-1.7.41-3.38.96-5.04.57-1.67,1.43-3.16,2.61-4.46,1.18-1.3,2.9-2.19,5.16-2.66,2.08-.44,4.53-.47,7.35-.08,3.02.49,5.11.93,6.28,1.31,1.17.39,1.84.98,2.01,1.79.18.81.04,1.89-.4,3.26-.45,1.35-.89,3.13-1.32,5.33l-4.02,19.83c-1.32,6.62-2.3,13.78-2.96,21.51-.64,7.73-1.14,15.67-1.51,23.83-.37,8.16-.58,16.34-.68,24.51-.09,8.17-.26,16.01-.5,23.51-.24,8.34-.54,15.97-.91,22.87-.34,6.89-1.07,12.56-2.13,17.01-1.28,5.18-4.44,8.31-9.48,9.38l-1.83.38c-2.66.29-5.4.09-8.16-.6-2.8-.67-5.72-1.82-8.78-3.42-2.31-1.47-4.77-4.34-7.39-8.56-2.63-4.22-5.31-9.01-8.07-14.32-2.16-4.19-4.28-8.45-6.38-12.79-2.1-4.34-4.08-8.34-5.93-12.04-1.89-3.68-3.59-6.84-5.14-9.46-1.56-2.63-2.87-4.31-3.95-5.07-.12,1.15-.29,4.36-.55,9.61-.25,5.25-.53,11.3-.82,18.11-.28,6.8-.64,13.79-1.03,20.98-.38,7.18-.88,13.29-1.44,18.34-.58,4.2-1.64,7.09-3.22,8.68-1.57,1.61-3.46,2.78-5.66,3.53l-1.57.33c-2.27.48-4.68.22-7.25-.8-2.58-1-5.25-3.25-7.99-6.75-5.09-6.93-10.68-15.71-16.73-26.31-6.04-10.61-12.14-21.79-18.26-33.58-3.62-6.82-7.19-13.66-10.74-20.51-3.54-6.85-6.91-13.33-10.1-19.48-3.21-6.14-6.16-11.85-8.81-17.12-2.66-5.28-4.83-9.78-6.52-13.5Z"/><path class="b" d="m978.67,394.5c-.69.27-1.7.57-3.1.86-2.96.63-5.43.59-7.4-.12-1.96-.7-3.14-2-3.54-3.88l-.09-.41c-.09-1.25.29-2.31,1.11-3.18.82-.88,1.95-1.71,3.43-2.52,1.47-.81,3.2-1.63,5.21-2.48,2.01-.83,3.98-1.82,5.91-2.94,1.14-.65,2.3-1.6,3.5-2.84,1.2-1.23,2.27-2.58,3.23-4.05.96-1.47,1.7-3,2.18-4.58.49-1.57.66-3.05.56-4.45-.06-1.11-.14-2.17-.26-3.2-.12-1.04-.31-2.08-.54-3.16-1.16-5.52-3.2-10.25-6.14-14.2-2.91-3.95-5.8-7.53-8.65-10.72l-1.39-1.4c-3.57-3.9-7.42-7.33-11.61-10.32-4.16-2.98-8.55-5.88-13.16-8.71-4.58-2.83-9.29-5.73-14.1-8.73-4.81-2.99-9.8-6.4-14.99-10.24-3.84-2.83-7.46-6.11-10.8-9.84-3.33-3.72-6.31-7.77-8.96-12.13-2.66-4.36-4.98-8.9-6.97-13.6-1.98-4.72-3.48-9.43-4.48-14.14-.31-1.47-.62-2.95-.95-4.42-.29-1.5-.43-3.01-.41-4.57-.27-4.71.18-9.32,1.34-13.77,1.14-4.46,3.06-8.52,5.76-12.18,2.66-3.65,6.23-6.84,10.66-9.53,4.43-2.7,9.77-4.69,16.05-6.02,4.16-.88,8.86-1.45,14.07-1.71,8.13-.3,14.29.39,18.46,2.12,4.2,1.72,6.48,3.59,6.91,5.61.57,2.69-1.49,4.52-6.2,5.52-3.13.65-6.88.68-11.16.04-2.28-.37-4.4-.52-6.38-.45-1.99.07-3.77.26-5.34.6-6.25,1.31-10.45,4.55-12.54,9.71-2.11,5.15-2.9,11.05-2.41,17.69-.04.71.05,1.47.2,2.29.18.79.35,1.61.51,2.42.77,3.62,1.97,7.18,3.61,10.62,1.64,3.45,3.47,6.76,5.5,9.92,2.04,3.14,4.19,6,6.45,8.55,2.26,2.54,4.48,4.64,6.65,6.3,5.44,4.32,11.13,8.37,17,12.11,5.89,3.75,11.71,7.45,17.48,11.08,5.77,3.64,11.25,7.4,16.43,11.3,5.18,3.9,9.89,8.08,14.09,12.52,5.87,6.22,9.75,13.84,11.64,22.85,1.22,5.79,1.36,11.61.42,17.42-.91,5.25-2.8,10.23-5.74,14.92-2.9,4.7-7.1,8.74-12.56,12.14-2.54,1.8-5.36,3.53-8.46,5.15-3.11,1.66-6.45,3.06-10.04,4.24l-.02-1.47Z"/><polygon class="b" points="1345.89 269.4 1076.78 326.17 1044.86 174.91 1313.99 118.12 1345.89 269.4"/><polygon class="b" points="632.63 936.48 277 1011.51 222.46 752.91 578.07 677.89 632.63 936.48"/><polygon class="b" points="1515.59 1073.62 1156.37 1149.41 1104.72 904.56 1463.93 828.77 1515.59 1073.62"/><polygon class="b" points="1355.32 314.03 1086.2 370.8 1080.39 343.3 1349.52 286.52 1355.32 314.03"/><polygon class="b" points="1382.48 415.42 203.71 664.12 200.8 650.36 1379.59 401.66 1382.48 415.42"/><polygon class="b" points="1404.14 517.96 674.64 671.87 679.25 693.75 1408.74 539.82 1404.14 517.96"/><rect class="b" x="684.6" y="669" width="745.55" height="22.36" transform="translate(-117.65 232.95) rotate(-11.91)"/><rect class="b" x="700.28" y="743.33" width="745.56" height="22.34" transform="translate(-132.65 237.79) rotate(-11.91)"/><polygon class="b" points="1451.17 740.93 721.69 894.84 726.31 916.73 1455.79 762.8 1451.17 740.93"/><polygon class="b" points="646.31 1001.28 290.69 1076.32 295.29 1098.18 650.92 1023.16 646.31 1001.28"/><polygon class="b" points="661.98 1075.6 306.36 1150.65 310.97 1172.51 666.61 1097.47 661.98 1075.6"/><rect class="b" x="320.44" y="1187.22" width="363.45" height="22.34" transform="translate(-236.58 129.48) rotate(-11.91)"/><polygon class="b" points="693.36 1224.25 337.74 1299.3 342.34 1321.16 697.96 1246.14 693.36 1224.25"/><polygon class="b" points="1055.12 915.02 699.49 990.07 704.1 1011.93 1059.72 936.91 1055.12 915.02"/><rect class="b" x="713.57" y="1026.62" width="363.44" height="22.36" transform="translate(-194.95 207.17) rotate(-11.91)"/><polygon class="b" points="1086.49 1063.69 730.86 1138.71 735.47 1160.58 1091.09 1085.55 1086.49 1063.69"/><polygon class="b" points="1102.16 1138 746.53 1213.05 751.16 1234.91 1106.78 1159.86 1102.16 1138"/><polygon class="b" points="441.78 460.14 172.65 516.92 140.74 365.67 409.86 308.89 441.78 460.14"/><polygon class="b" points="451.2 504.79 182.07 561.55 176.28 534.05 445.4 477.27 451.2 504.79"/></svg>